<!DOCTYPE svg PUBLIC "-//W3C//DTD SVG 1.1//EN" "https://www.w3.org/Graphics/SVG/1.1/DTD/svg11.dtd"><svg xmlns="http://www.w3.org/2000/svg" aria-label="Graph view" width="916" height="926"><g transform="translate(12,19.06987953186035)"><g class="nodes"><g class="node-container" transform="translate(567.951171875,18.88888931274414)"><g class="node anchor"><circle class="shape" x="-15.958769798278809" y="-8.88888931274414" r="25.95876979827881"/><text class="label"><tspan xml:space="preserve" text-anchor="middle" alignment-baseline="central">Start</tspan></text></g></g><g class="node-container" transform="translate(675.8084449768066,872.2222328186035)"><g class="node anchor"><circle class="shape" x="-12.17881965637207" y="-8.88888931274414" r="22.17881965637207"/><text class="label"><tspan xml:space="preserve" text-anchor="middle" alignment-baseline="central">End</tspan></text></g></g><g class="node-container" transform="translate(567.951171875,81.66666793823242)"><g class="node state Task SucceededState" aria-label="State CreateCluster" data-virtual-tab-id="361" tabindex="0" transform="translate(-8)"><rect class="shape step-status" rx="5" ry="5" x="-53.02072525024414" y="-18.88888931274414" width="122.04145050048828" height="37.77777862548828"/><text class="label" xml:space="preserve" text-anchor="middle" alignment-baseline="central">CreateCluster</text><svg class="icon" width="16" height="16" x="48.02072525024414" y="-8"><circle stroke="black" stroke-width="1" fill="none" cx="8" cy="8" r="7"/><path stroke="black" stroke-width="1" fill="none" d="m5 8 2 2 3.521-3.521"/></svg></g></g><g class="node-container" transform="translate(471.31957244873047,144.4444465637207)"><g class="node state Task SucceededState" aria-label="State RegisterTaskDefinition1" data-virtual-tab-id="362" tabindex="-1" transform="translate(-8)"><rect class="shape step-status" rx="5" ry="5" x="-85.38195037841797" y="-18.88888931274414" width="186.76390075683594" height="37.77777862548828"/><text class="label" xml:space="preserve" text-anchor="middle" alignment-baseline="central">RegisterTaskDefinition1</text><svg class="icon" width="16" height="16" x="80.38195037841797" y="-8"><circle stroke="black" stroke-width="1" fill="none" cx="8" cy="8" r="7"/><path stroke="black" stroke-width="1" fill="none" d="m5 8 2 2 3.521-3.521"/></svg></g></g><g class="node-container" transform="translate(807.6148719787598,746.666675567627)"><g class="node state Task NotYetStarted" aria-label="State NotifyGeneralFailure" data-virtual-tab-id="363" tabindex="-1" transform="translate(-8)"><rect class="shape step-status" rx="5" ry="5" x="-75.98583221435547" y="-18.88888931274414" width="167.97166442871094" height="37.77777862548828"/><text class="label" xml:space="preserve" text-anchor="middle" alignment-baseline="central">NotifyGeneralFailure</text><svg class="icon" width="16" height="16" x="70.98583221435547" y="-8"/></g></g><g class="node-container" transform="translate(403.7041206359863,207.22222518920898)"><g class="node state Task SucceededState" aria-label="State RunTask1" data-virtual-tab-id="364" tabindex="-1" transform="translate(-8)"><rect class="shape step-status" rx="5" ry="5" x="-40.59895896911621" y="-18.88888931274414" width="97.19791793823242" height="37.77777862548828"/><text class="label" xml:space="preserve" text-anchor="middle" alignment-baseline="central">RunTask1</text><svg class="icon" width="16" height="16" x="35.59895896911621" y="-8"><circle stroke="black" stroke-width="1" fill="none" cx="8" cy="8" r="7"/><path stroke="black" stroke-width="1" fill="none" d="m5 8 2 2 3.521-3.521"/></svg></g></g><g class="node-container" transform="translate(579.1768455505371,746.666675567627)"><g class="node state Task SucceededState" aria-label="State DeleteCluster" data-virtual-tab-id="365" tabindex="-1" transform="translate(-8)"><rect class="shape step-status" rx="5" ry="5" x="-53.06972122192383" y="-18.88888931274414" width="122.13944244384766" height="37.77777862548828"/><text class="label" xml:space="preserve" text-anchor="middle" alignment-baseline="central">DeleteCluster</text><svg class="icon" width="16" height="16" x="48.06972122192383" y="-8"><circle stroke="black" stroke-width="1" fill="none" cx="8" cy="8" r="7"/><path stroke="black" stroke-width="1" fill="none" d="m5 8 2 2 3.521-3.521"/></svg></g></g><g class="node-container" transform="translate(294.09649658203125,270.00000381469727)"><g class="node state Pass SucceededState" aria-label="State ExtractTask1Status" data-virtual-tab-id="366" tabindex="-1" transform="translate(-8)"><rect class="shape step-status" rx="5" ry="5" x="-70.88727569580078" y="-18.88888931274414" width="157.77455139160156" height="37.77777862548828"/><text class="label" xml:space="preserve" text-anchor="middle" alignment-baseline="central">ExtractTask1Status</text><svg class="icon" width="16" height="16" x="65.88727569580078" y="-8"><circle stroke="black" stroke-width="1" fill="none" cx="8" cy="8" r="7"/><path stroke="black" stroke-width="1" fill="none" d="m5 8 2 2 3.521-3.521"/></svg></g></g><g class="node-container" transform="translate(593.1929931640625,395.5555610656738)"><g class="node state Task NotYetStarted" aria-label="State DeregisterTaskDefinition1" data-virtual-tab-id="367" tabindex="-1" transform="translate(-8)"><rect class="shape step-status" rx="5" ry="5" x="-92.23090362548828" y="-18.88888931274414" width="200.46180725097656" height="37.77777862548828"/><text class="label" xml:space="preserve" text-anchor="middle" alignment-baseline="central">DeregisterTaskDefinition1</text><svg class="icon" width="16" height="16" x="87.23090362548828" y="-8"/></g></g><g class="node-container" transform="translate(294.09649658203125,332.77778244018555)"><g class="node state Task SucceededState" aria-label="State RegisterTaskDefinition2" data-virtual-tab-id="368" tabindex="-1" transform="translate(-8)"><rect class="shape step-status" rx="5" ry="5" x="-85.71837615966797" y="-18.88888931274414" width="187.43675231933594" height="37.77777862548828"/><text class="label" xml:space="preserve" text-anchor="middle" alignment-baseline="central">RegisterTaskDefinition2</text><svg class="icon" width="16" height="16" x="80.71837615966797" y="-8"><circle stroke="black" stroke-width="1" fill="none" cx="8" cy="8" r="7"/><path stroke="black" stroke-width="1" fill="none" d="m5 8 2 2 3.521-3.521"/></svg></g></g><g class="node-container" transform="translate(279.09649658203125,395.5555610656738)"><g class="node state Task SucceededState" aria-label="State RunTask2" data-virtual-tab-id="369" tabindex="-1" transform="translate(-8)"><rect class="shape step-status" rx="5" ry="5" x="-40.93941688537598" y="-18.88888931274414" width="97.87883377075195" height="37.77777862548828"/><text class="label" xml:space="preserve" text-anchor="middle" alignment-baseline="central">RunTask2</text><svg class="icon" width="16" height="16" x="35.93941688537598" y="-8"><circle stroke="black" stroke-width="1" fill="none" cx="8" cy="8" r="7"/><path stroke="black" stroke-width="1" fill="none" d="m5 8 2 2 3.521-3.521"/></svg></g></g><g class="node-container" transform="translate(222.15285873413086,458.3333396911621)"><g class="node state Pass SucceededState" aria-label="State ExtractTask2Status" data-virtual-tab-id="370" tabindex="-1" transform="translate(-8)"><rect class="shape step-status" rx="5" ry="5" x="-70.88727569580078" y="-18.88888931274414" width="157.77455139160156" height="37.77777862548828"/><text class="label" xml:space="preserve" text-anchor="middle" alignment-baseline="central">ExtractTask2Status</text><svg class="icon" width="16" height="16" x="65.88727569580078" y="-8"><circle stroke="black" stroke-width="1" fill="none" cx="8" cy="8" r="7"/><path stroke="black" stroke-width="1" fill="none" d="m5 8 2 2 3.521-3.521"/></svg></g></g><g class="node-container" transform="translate(279.09649658203125,602.5000076293945)"><g class="node state Parallel Container SucceededState" aria-label="State CleanupBothTaskDefinitions" data-virtual-tab-id="371" tabindex="-1" transform="translate(-279.09649658203125,-60.27777862548828)"><rect class="shape" rx="5" ry="5" x="0" y="0" width="558.1929931640625" height="180.55555725097656" transform="translate(0,-20)"/><g class="branches" transform="translate(20,40)"><g class="branch" transform="translate(0,0)"><g class="nodes"><g class="node-container" transform="translate(124.54824829101562,18.88888931274414)"><g class="node state Task SucceededState" aria-label="State DeregisterTaskDefinition1Success" data-virtual-tab-id="372" tabindex="-1" transform="translate(-8)"><rect class="shape step-status" rx="5" ry="5" x="-116.54824829101562" y="-18.88888931274414" width="249.09649658203125" height="37.77777862548828"/><text class="label" xml:space="preserve" text-anchor="middle" alignment-baseline="central">DeregisterTaskDefinition1Success</text><svg class="icon" width="16" height="16" x="111.54824829101562" y="-8"><circle stroke="black" stroke-width="1" fill="none" cx="8" cy="8" r="7"/><path stroke="black" stroke-width="1" fill="none" d="m5 8 2 2 3.521-3.521"/></svg></g></g><g class="node-container" transform="translate(124.54824829101562,81.66666793823242)"><g class="node state Pass SucceededState" aria-label="State CleanupBranchPass1" data-virtual-tab-id="373" tabindex="-1" transform="translate(-8)"><rect class="shape step-status" rx="5" ry="5" x="-75.94618225097656" y="-18.88888931274414" width="167.89236450195312" height="37.77777862548828"/><text class="label" xml:space="preserve" text-anchor="middle" alignment-baseline="central">CleanupBranchPass1</text><svg class="icon" width="16" height="16" x="70.94618225097656" y="-8"><circle stroke="black" stroke-width="1" fill="none" cx="8" cy="8" r="7"/><path stroke="black" stroke-width="1" fill="none" d="m5 8 2 2 3.521-3.521"/></svg></g></g></g><g class="edges"><g class="edge"><path class="path" marker-end="url(#arrowhead501)" d="M124.548,37.778L124.548,39.861C124.548,41.944,124.548,46.111,124.548,50.278C124.548,54.444,124.548,58.611,124.548,60.694L124.548,62.778" style="fill: none;"/><defs><marker id="arrowhead501" viewBox="0 0 10 10" refX="9" refY="5" markerUnits="strokeWidth" markerWidth="8" markerHeight="6" orient="auto"><path d="M 0 0 L 10 5 L 0 10 z"/></marker></defs></g></g></g><g class="branch" transform="translate(269.09649658203125,0)"><g class="nodes"><g class="node-container" transform="translate(124.54824829101562,18.88888931274414)"><g class="node state Task SucceededState" aria-label="State DeregisterTaskDefinition2Success" data-virtual-tab-id="374" tabindex="-1" transform="translate(-8)"><rect class="shape step-status" rx="5" ry="5" x="-116.54824829101562" y="-18.88888931274414" width="249.09649658203125" height="37.77777862548828"/><text class="label" xml:space="preserve" text-anchor="middle" alignment-baseline="central">DeregisterTaskDefinition2Success</text><svg class="icon" width="16" height="16" x="111.54824829101562" y="-8"><circle stroke="black" stroke-width="1" fill="none" cx="8" cy="8" r="7"/><path stroke="black" stroke-width="1" fill="none" d="m5 8 2 2 3.521-3.521"/></svg></g></g><g class="node-container" transform="translate(124.54824829101562,81.66666793823242)"><g class="node state Pass SucceededState" aria-label="State CleanupBranchPass2" data-virtual-tab-id="375" tabindex="-1" transform="translate(-8)"><rect class="shape step-status" rx="5" ry="5" x="-76.28239440917969" y="-18.88888931274414" width="168.56478881835938" height="37.77777862548828"/><text class="label" xml:space="preserve" text-anchor="middle" alignment-baseline="central">CleanupBranchPass2</text><svg class="icon" width="16" height="16" x="71.28239440917969" y="-8"><circle stroke="black" stroke-width="1" fill="none" cx="8" cy="8" r="7"/><path stroke="black" stroke-width="1" fill="none" d="m5 8 2 2 3.521-3.521"/></svg></g></g></g><g class="edges"><g class="edge"><path class="path" marker-end="url(#arrowhead502)" d="M124.548,37.778L124.548,39.861C124.548,41.944,124.548,46.111,124.548,50.278C124.548,54.444,124.548,58.611,124.548,60.694L124.548,62.778" style="fill: none;"/><defs><marker id="arrowhead502" viewBox="0 0 10 10" refX="9" refY="5" markerUnits="strokeWidth" markerWidth="8" markerHeight="6" orient="auto"><path d="M 0 0 L 10 5 L 0 10 z"/></marker></defs></g></g></g></g><g class="title node state SucceededState" transform="translate(259.09649658203125,-40)"><rect class="shape step-status" rx="5" ry="5" x="0" y="0" width="229.4624786376953" height="40" transform="translate(-94.73123931884766)"/><text class="label" xml:space="preserve" text-anchor="middle" alignment-baseline="central" font-weight="600" x="40" y="10" transform="translate(-28)">CleanupBothTaskDefinitions</text><text class="desciption" xml:space="preserve" text-anchor="middle" alignment-baseline="central" x="40" y="30" transform="translate(-20)">2 Branches</text><svg class="icon" width="16" height="16" xml:space="preserve" text-anchor="middle" alignment-baseline="central" x="113.73123931884766" y="3"><circle stroke="black" stroke-width="1" fill="none" cx="8" cy="8" r="7"/><path stroke="black" stroke-width="1" fill="none" d="m5 8 2 2 3.521-3.521"/></svg></g><path class="path" marker-end="url(#arrowhead503)" d="M279.096,0L279.096,3.333C279.096,6.667,279.096,13.333,256.672,16.667C234.247,20,189.398,20,166.973,23.333C144.548,26.667,144.548,33.333,144.548,36.667L144.548,40" style="fill: none;"/><defs><marker id="arrowhead503" viewBox="0 0 10 10" refX="9" refY="5" markerUnits="strokeWidth" markerWidth="8" markerHeight="6" orient="auto"><path d="M 0 0 L 10 5 L 0 10 z"/></marker></defs><path class="path" marker-end="url(#arrowhead504)" d="M279.096,0L279.096,3.333C279.096,6.667,279.096,13.333,301.521,16.667C323.946,20,368.795,20,391.22,23.333C413.645,26.667,413.645,33.333,413.645,36.667L413.645,40" style="fill: none;"/><defs><marker id="arrowhead504" viewBox="0 0 10 10" refX="9" refY="5" markerUnits="strokeWidth" markerWidth="8" markerHeight="6" orient="auto"><path d="M 0 0 L 10 5 L 0 10 z"/></marker></defs></g></g><g class="node-container" transform="translate(391.7037048339844,809.4444541931152)"><g class="node state Task SucceededState" aria-label="State NotifySuccess" data-virtual-tab-id="376" tabindex="-1" transform="translate(-8)"><rect class="shape step-status" rx="5" ry="5" x="-54.2273063659668" y="-18.88888931274414" width="124.4546127319336" height="37.77777862548828"/><text class="label" xml:space="preserve" text-anchor="middle" alignment-baseline="central">NotifySuccess</text><svg class="icon" width="16" height="16" x="49.2273063659668" y="-8"><circle stroke="black" stroke-width="1" fill="none" cx="8" cy="8" r="7"/><path stroke="black" stroke-width="1" fill="none" d="m5 8 2 2 3.521-3.521"/></svg></g></g><g class="node-container" transform="translate(614.3516731262207,809.4444541931152)"><g class="node state Task NotYetStarted" aria-label="State NotifyCleanupFailure" data-virtual-tab-id="377" tabindex="-1" transform="translate(-8)"><rect class="shape step-status" rx="5" ry="5" x="-77.24583435058594" y="-18.88888931274414" width="170.49166870117188" height="37.77777862548828"/><text class="label" xml:space="preserve" text-anchor="middle" alignment-baseline="central">NotifyCleanupFailure</text><svg class="icon" width="16" height="16" x="72.24583435058594" y="-8"/></g></g><g class="node-container" transform="translate(807.6148719787598,809.4444541931152)"><g class="node state Fail NotYetStarted" aria-label="State WorkflowFailed" data-virtual-tab-id="378" tabindex="-1" transform="translate(-8)"><rect class="shape step-status" rx="5" ry="5" x="-60.017364501953125" y="-18.88888931274414" width="136.03472900390625" height="37.77777862548828"/><text class="label" xml:space="preserve" text-anchor="middle" alignment-baseline="central">WorkflowFailed</text><svg class="icon" width="16" height="16" x="55.017364501953125" y="-8"/></g></g></g><g class="edges"><g class="edge"><path class="path" marker-end="url(#arrowhead505)" d="M509.801,100.556L503.388,102.639C496.974,104.722,484.147,108.889,477.733,113.056C471.32,117.222,471.32,121.389,471.32,123.472L471.32,125.556" style="fill: none;"/><defs><marker id="arrowhead505" viewBox="0 0 10 10" refX="9" refY="5" markerUnits="strokeWidth" markerWidth="8" markerHeight="6" orient="auto"><path d="M 0 0 L 10 5 L 0 10 z"/></marker></defs></g><g class="edge"><path class="path" marker-end="url(#arrowhead506)" d="M628.972,89.659L658.746,93.558C688.52,97.458,748.067,105.257,777.841,114.388C807.615,123.519,807.615,133.981,807.615,144.444C807.615,154.907,807.615,165.37,807.615,175.833C807.615,186.296,807.615,196.759,807.615,207.222C807.615,217.685,807.615,228.148,807.615,238.611C807.615,249.074,807.615,259.537,807.615,270C807.615,280.463,807.615,290.926,807.615,301.389C807.615,311.852,807.615,322.315,807.615,332.778C807.615,343.241,807.615,353.704,807.615,364.167C807.615,374.63,807.615,385.093,807.615,395.556C807.615,406.019,807.615,416.481,807.615,426.944C807.615,437.407,807.615,447.87,807.615,458.333C807.615,468.796,807.615,479.259,807.615,503.287C807.615,527.315,807.615,564.907,807.615,602.5C807.615,640.093,807.615,677.685,807.615,698.565C807.615,719.444,807.615,723.611,807.615,725.694L807.615,727.778" style="fill: none;"/><defs><marker id="arrowhead506" viewBox="0 0 10 10" refX="9" refY="5" markerUnits="strokeWidth" markerWidth="8" markerHeight="6" orient="auto"><path d="M 0 0 L 10 5 L 0 10 z"/></marker></defs></g><g class="edge"><path class="path" marker-end="url(#arrowhead507)" d="M567.951,44.848L567.951,45.753C567.951,46.658,567.951,48.468,567.951,51.456C567.951,54.444,567.951,58.611,567.951,60.694L567.951,62.778" style="fill: none;"/><defs><marker id="arrowhead507" viewBox="0 0 10 10" refX="9" refY="5" markerUnits="strokeWidth" markerWidth="8" markerHeight="6" orient="auto"><path d="M 0 0 L 10 5 L 0 10 z"/></marker></defs></g><g class="edge"><path class="path" marker-end="url(#arrowhead508)" d="M430.631,163.333L426.143,165.417C421.655,167.5,412.68,171.667,408.192,175.833C403.704,180,403.704,184.167,403.704,186.25L403.704,188.333" style="fill: none;"/><defs><marker id="arrowhead508" viewBox="0 0 10 10" refX="9" refY="5" markerUnits="strokeWidth" markerWidth="8" markerHeight="6" orient="auto"><path d="M 0 0 L 10 5 L 0 10 z"/></marker></defs></g><g class="edge"><path class="path" marker-end="url(#arrowhead509)" d="M564.702,155.845L591.989,159.176C619.276,162.508,673.85,169.171,701.137,177.733C728.424,186.296,728.424,196.759,728.424,207.222C728.424,217.685,728.424,228.148,728.424,238.611C728.424,249.074,728.424,259.537,728.424,270C728.424,280.463,728.424,290.926,728.424,301.389C728.424,311.852,728.424,322.315,728.424,332.778C728.424,343.241,728.424,353.704,728.424,364.167C728.424,374.63,728.424,385.093,728.424,395.556C728.424,406.019,728.424,416.481,728.424,426.944C728.424,437.407,728.424,447.87,728.424,458.333C728.424,468.796,728.424,479.259,728.424,503.287C728.424,527.315,728.424,564.907,728.424,602.5C728.424,640.093,728.424,677.685,713.728,699.572C699.031,721.459,669.639,727.641,654.943,730.732L640.247,733.823" style="fill: none;"/><defs><marker id="arrowhead509" viewBox="0 0 10 10" refX="9" refY="5" markerUnits="strokeWidth" markerWidth="8" markerHeight="6" orient="auto"><path d="M 0 0 L 10 5 L 0 10 z"/></marker></defs></g><g class="edge"><path class="path" marker-end="url(#arrowhead510)" d="M355.105,221.14L344.937,224.052C334.769,226.964,314.433,232.787,304.265,237.783C294.096,242.778,294.096,246.944,294.096,249.028L294.096,251.111" style="fill: none;"/><defs><marker id="arrowhead510" viewBox="0 0 10 10" refX="9" refY="5" markerUnits="strokeWidth" markerWidth="8" markerHeight="6" orient="auto"><path d="M 0 0 L 10 5 L 0 10 z"/></marker></defs></g><g class="edge"><path class="path" marker-end="url(#arrowhead511)" d="M452.303,213.523L484.554,217.704C516.805,221.886,581.307,230.248,613.558,239.661C645.808,249.074,645.808,259.537,645.808,270C645.808,280.463,645.808,290.926,645.808,301.389C645.808,311.852,645.808,322.315,645.808,332.778C645.808,343.241,645.808,353.704,642.316,361.019C638.824,368.333,631.84,372.5,628.348,374.583L624.855,376.667" style="fill: none;"/><defs><marker id="arrowhead511" viewBox="0 0 10 10" refX="9" refY="5" markerUnits="strokeWidth" markerWidth="8" markerHeight="6" orient="auto"><path d="M 0 0 L 10 5 L 0 10 z"/></marker></defs></g><g class="edge"><path class="path" marker-end="url(#arrowhead512)" d="M294.096,288.889L294.096,290.972C294.096,293.056,294.096,297.222,294.096,301.389C294.096,305.556,294.096,309.722,294.096,311.806L294.096,313.889" style="fill: none;"/><defs><marker id="arrowhead512" viewBox="0 0 10 10" refX="9" refY="5" markerUnits="strokeWidth" markerWidth="8" markerHeight="6" orient="auto"><path d="M 0 0 L 10 5 L 0 10 z"/></marker></defs></g><g class="edge"><path class="path" marker-end="url(#arrowhead513)" d="M285.07,351.667L284.074,353.75C283.079,355.833,281.088,360,280.092,364.167C279.096,368.333,279.096,372.5,279.096,374.583L279.096,376.667" style="fill: none;"/><defs><marker id="arrowhead513" viewBox="0 0 10 10" refX="9" refY="5" markerUnits="strokeWidth" markerWidth="8" markerHeight="6" orient="auto"><path d="M 0 0 L 10 5 L 0 10 z"/></marker></defs></g><g class="edge"><path class="path" marker-end="url(#arrowhead514)" d="M387.815,351.509L398.37,353.619C408.925,355.728,430.035,359.947,450.018,364.14C470.001,368.333,488.857,372.5,498.285,374.583L507.713,376.667" style="fill: none;"/><defs><marker id="arrowhead514" viewBox="0 0 10 10" refX="9" refY="5" markerUnits="strokeWidth" markerWidth="8" markerHeight="6" orient="auto"><path d="M 0 0 L 10 5 L 0 10 z"/></marker></defs></g><g class="edge"><path class="path" marker-end="url(#arrowhead515)" d="M244.83,414.444L241.05,416.528C237.271,418.611,229.712,422.778,225.932,426.944C222.153,431.111,222.153,435.278,222.153,437.361L222.153,439.444" style="fill: none;"/><defs><marker id="arrowhead515" viewBox="0 0 10 10" refX="9" refY="5" markerUnits="strokeWidth" markerWidth="8" markerHeight="6" orient="auto"><path d="M 0 0 L 10 5 L 0 10 z"/></marker></defs></g><g class="edge"><path class="path" marker-end="url(#arrowhead516)" d="M328.036,406.37L343.554,409.799C359.072,413.228,390.108,420.086,405.627,428.747C421.145,437.407,421.145,447.87,421.145,458.333C421.145,468.796,421.145,479.259,397.47,486.574C373.795,493.889,326.446,498.056,302.771,500.139L279.096,502.222" style="fill: none;"/></g><g class="edge"><path class="path" marker-end="url(#arrowhead517)" d="M222.153,477.222L222.153,479.306C222.153,481.389,222.153,485.556,231.643,489.722C241.134,493.889,260.115,498.056,269.606,500.139L279.096,502.222" style="fill: none;"/></g><g class="edge"><path class="path" marker-end="url(#arrowhead518)" d="M279.096,702.778L279.096,704.861C279.096,706.944,279.096,711.111,318.932,717.361C358.767,723.611,438.437,731.945,478.272,736.112L518.107,740.279" style="fill: none;"/><defs><marker id="arrowhead518" viewBox="0 0 10 10" refX="9" refY="5" markerUnits="strokeWidth" markerWidth="8" markerHeight="6" orient="auto"><path d="M 0 0 L 10 5 L 0 10 z"/></marker></defs></g><g class="edge"><path class="path" marker-end="url(#arrowhead519)" d="M518.107,756.892L497.04,760.419C475.973,763.946,433.838,771.001,412.771,776.612C391.704,782.222,391.704,786.389,391.704,788.472L391.704,790.556" style="fill: none;"/><defs><marker id="arrowhead519" viewBox="0 0 10 10" refX="9" refY="5" markerUnits="strokeWidth" markerWidth="8" markerHeight="6" orient="auto"><path d="M 0 0 L 10 5 L 0 10 z"/></marker></defs></g><g class="edge"><path class="path" marker-end="url(#arrowhead520)" d="M600.344,765.556L602.679,767.639C605.013,769.722,609.682,773.889,612.017,778.056C614.352,782.222,614.352,786.389,614.352,788.472L614.352,790.556" style="fill: none;"/><defs><marker id="arrowhead520" viewBox="0 0 10 10" refX="9" refY="5" markerUnits="strokeWidth" markerWidth="8" markerHeight="6" orient="auto"><path d="M 0 0 L 10 5 L 0 10 z"/></marker></defs></g><g class="edge"><path class="path" marker-end="url(#arrowhead521)" d="M391.704,828.333L391.704,830.417C391.704,832.5,391.704,836.667,435.38,843.576C479.057,850.484,566.41,860.136,610.087,864.961L653.764,869.787" style="fill: none;"/><defs><marker id="arrowhead521" viewBox="0 0 10 10" refX="9" refY="5" markerUnits="strokeWidth" markerWidth="8" markerHeight="6" orient="auto"><path d="M 0 0 L 10 5 L 0 10 z"/></marker></defs></g><g class="edge"><path class="path" marker-end="url(#arrowhead522)" d="M593.193,414.444L593.193,416.528C593.193,418.611,593.193,422.778,593.193,430.093C593.193,437.407,593.193,447.87,593.193,458.333C593.193,468.796,593.193,479.259,593.193,503.287C593.193,527.315,593.193,564.907,593.193,602.5C593.193,640.093,593.193,677.685,592.263,698.565C591.332,719.444,589.472,723.611,588.542,725.694L587.611,727.778" style="fill: none;"/><defs><marker id="arrowhead522" viewBox="0 0 10 10" refX="9" refY="5" markerUnits="strokeWidth" markerWidth="8" markerHeight="6" orient="auto"><path d="M 0 0 L 10 5 L 0 10 z"/></marker></defs></g><g class="edge"><path class="path" marker-end="url(#arrowhead523)" d="M807.615,765.556L807.615,767.639C807.615,769.722,807.615,773.889,807.615,778.056C807.615,782.222,807.615,786.389,807.615,788.472L807.615,790.556" style="fill: none;"/><defs><marker id="arrowhead523" viewBox="0 0 10 10" refX="9" refY="5" markerUnits="strokeWidth" markerWidth="8" markerHeight="6" orient="auto"><path d="M 0 0 L 10 5 L 0 10 z"/></marker></defs></g><g class="edge"><path class="path" marker-end="url(#arrowhead524)" d="M614.352,828.333L614.352,830.417C614.352,832.5,614.352,836.667,621.303,842.3C628.253,847.934,642.155,855.034,649.106,858.584L656.057,862.134" style="fill: none;"/><defs><marker id="arrowhead524" viewBox="0 0 10 10" refX="9" refY="5" markerUnits="strokeWidth" markerWidth="8" markerHeight="6" orient="auto"><path d="M 0 0 L 10 5 L 0 10 z"/></marker></defs></g><g class="edge"><path class="path" marker-end="url(#arrowhead525)" d="M807.615,828.333L807.615,830.417C807.615,832.5,807.615,836.667,789.243,843.125C770.871,849.584,734.128,858.334,715.756,862.709L697.384,867.084" style="fill: none;"/><defs><marker id="arrowhead525" viewBox="0 0 10 10" refX="9" refY="5" markerUnits="strokeWidth" markerWidth="8" markerHeight="6" orient="auto"><path d="M 0 0 L 10 5 L 0 10 z"/></marker></defs></g></g></g><style xmlns="http://www.w3.org/1999/xhtml">
  .link &gt; rect {
    fill: #0073BB;
  }

  .link .label {
    fill: #FFFFFF;
  }

  .node &gt; .shape {
    stroke: #555555;
    stroke-width: 0.6px;
    fill: #FFFFFF;
  }

  path {
    stroke: #555;
    background-color: #555;
    stroke-width: 1px;
  }

  .node.state.NotYetStarted &gt; .shape,
  .node.state.Container &gt; .shape {
    stroke-dasharray: 5 2;
  }

  .node.state.FailedState &gt; .shape,
  rect.legend.FailedState {
    fill: #DE322F;
  }

  .node.state.CaughtErrorState &gt; .shape,
  rect.legend.CaughtErrorState {
    fill: #FFA500;
  }

  .node.state.SucceededState &gt; .shape,
  rect.legend.SucceededState {
    fill: #2BD62E;
  }

  .node.state.InProgressState &gt; .shape,
  rect.legend.InProgressState {
    fill: #53c9ed;
  }

  .node.state.CancelledState &gt; .shape,
  rect.legend.CancelledState {
    fill: #dddddd;
  }

  .node.anchor &gt; .shape {
    fill: #FFDA75;
  }

  .node.state.hovered:not(.selected):not(.NotYetStarted) &gt; .shape,
  .node.selected &gt; .shape {
    stroke: #555555;
    stroke-width: 2px;
  }

  .node.state.Container.Failed &gt; .shape {
    fill: #EE9592;
  }

  .node.state.Container.CaughtError &gt; .shape {
    fill: #FFD27F;
  }

  .node.state.Container.Succeeded &gt; .shape {
    fill: #91EA9A;
  }

  .node.state.Container.InProgress &gt; .shape {
    fill :#A9E4F7;
  }

  .node.state.Container.Cancelled &gt; .shape {
    fill: #EEEEEE;
  }

  marker {
    fill: #555555;
  }

  .node.anchor,
  .node.state.NotYetStarted {
    cursor: default;
  }

  .node.state {
    cursor: default;
  }

  tspan .label {
    font-weight: normal;
    font-size: 12px;
    text-shadow: none;
  }
</style></svg>