<!DOCTYPE svg PUBLIC "-//W3C//DTD SVG 1.1//EN" "https://www.w3.org/Graphics/SVG/1.1/DTD/svg11.dtd"><svg xmlns="http://www.w3.org/2000/svg" class="sc-lfYzqA cMKtrY graph" data-testid="graph" role="img" aria-labelledby="polymath-graph-title" width="1232" height="1319"><title id="polymath-graph-title">Workflow Studio State Machine Graph</title><g transform="translate(12,12)" class="new-look-graph"><g class="nodes"><g class="node-container" transform="translate(724,22)"><g><circle class="sc-kCMKrZ cECDmZ shape" r="22"/><text class="sc-imwsjW frydMn label"><tspan xml:space="preserve" text-anchor="middle" alignment-baseline="central">Start</tspan></text></g></g><g class="node-container" transform="translate(724,103.5)"><g class="sc-ERObt bWeRVe node state Task" data-testid="graph-CreateCluster" data-state-id="CreateCluster" data-state-type="Task"><g class="new-look-state-node "><rect x="-120" y="-24.5" width="240" height="49" rx="3" ry="3"/><g class="handle" transform="translate(-120,-24.5)"><path d="M5,16 L5,34 M8,16 L8,34"/></g><g class="icon" transform="translate(-104,-24)"><rect fill="var(--color-background-container-header-7s2tba, #fafafa)" x="0.0361026108" y="0.0181291967" width="48" height="48"/><line x1="47.5" y1="0.49122807" x2="47.5" y2="47.5" stroke="var(--color-board-placeholder-active-yji408, #d5dbdb)" stroke-linecap="square"/><line x1="0.5" y1="0.49122807" x2="0.5" y2="47.5" stroke="var(--color-board-placeholder-active-yji408, #d5dbdb)" stroke-linecap="square"/><use href="#icon-service-ecs" aria-hidden="true"><title>Elastic Container Service</title></use></g><g class="text-lines" transform="translate(-48,-24.5)"><text transform="translate(0,17)" class="line1"><tspan xml:space="preserve" text-anchor="start">ECS: CreateCluster</tspan></text><text transform="translate(0,35.5)" class="line2 label"><tspan xml:space="preserve" text-anchor="start">CreateCluster</tspan></text></g></g></g></g><g class="node-container" transform="translate(584,187.5)"><g class="sc-ERObt bWeRVe node state Task" data-testid="graph-RegisterTaskDefinition1" data-state-id="RegisterTaskDefinition1" data-state-type="Task"><g class="new-look-state-node "><rect x="-120" y="-24.5" width="240" height="49" rx="3" ry="3"/><g class="handle" transform="translate(-120,-24.5)"><path d="M5,16 L5,34 M8,16 L8,34"/></g><g class="icon" transform="translate(-104,-24)"><rect fill="var(--color-background-container-header-7s2tba, #fafafa)" x="0.0361026108" y="0.0181291967" width="48" height="48"/><line x1="47.5" y1="0.49122807" x2="47.5" y2="47.5" stroke="var(--color-board-placeholder-active-yji408, #d5dbdb)" stroke-linecap="square"/><line x1="0.5" y1="0.49122807" x2="0.5" y2="47.5" stroke="var(--color-board-placeholder-active-yji408, #d5dbdb)" stroke-linecap="square"/><use href="#icon-service-ecs" aria-hidden="true"><title>Elastic Container Service</title></use></g><g class="text-lines" transform="translate(-48,-24.5)"><text transform="translate(0,17)" class="line1"><tspan xml:space="preserve" text-anchor="start">ECS: RegisterTaskDefinition</tspan></text><text transform="translate(0,35.5)" class="line2 label"><tspan xml:space="preserve" text-anchor="start">RegisterTaskDefinition1</tspan></text></g></g></g></g><g class="node-container" transform="translate(1087.5,1090.5)"><g class="sc-ERObt bWeRVe node state Task" data-testid="graph-NotifyGeneralFailure" data-state-id="NotifyGeneralFailure" data-state-type="Task"><g class="new-look-state-node "><rect x="-120" y="-24.5" width="240" height="49" rx="3" ry="3"/><g class="handle" transform="translate(-120,-24.5)"><path d="M5,16 L5,34 M8,16 L8,34"/></g><g class="icon" transform="translate(-104,-24)"><rect fill="var(--color-background-container-header-7s2tba, #fafafa)" x="0.0361026108" y="0.0181291967" width="48" height="48"/><line x1="47.5" y1="0.49122807" x2="47.5" y2="47.5" stroke="var(--color-board-placeholder-active-yji408, #d5dbdb)" stroke-linecap="square"/><line x1="0.5" y1="0.49122807" x2="0.5" y2="47.5" stroke="var(--color-board-placeholder-active-yji408, #d5dbdb)" stroke-linecap="square"/><use href="#icon-service-sns" aria-hidden="true"><title>Simple Notification Service</title></use></g><g class="text-lines" transform="translate(-48,-24.5)"><text transform="translate(0,17)" class="line1"><tspan xml:space="preserve" text-anchor="start">SNS: Publish</tspan></text><text transform="translate(0,35.5)" class="line2 label"><tspan xml:space="preserve" text-anchor="start">NotifyGeneralFailure</tspan></text></g></g></g></g><g class="node-container" transform="translate(505,271.5)"><g class="sc-ERObt bWeRVe node state Task" data-testid="graph-RunTask1" data-state-id="RunTask1" data-state-type="Task"><g class="new-look-state-node "><rect x="-120" y="-24.5" width="240" height="49" rx="3" ry="3"/><g class="handle" transform="translate(-120,-24.5)"><path d="M5,16 L5,34 M8,16 L8,34"/></g><g class="icon" transform="translate(-104,-24)"><rect fill="var(--color-background-container-header-7s2tba, #fafafa)" x="0.0361026108" y="0.0181291967" width="48" height="48"/><line x1="47.5" y1="0.49122807" x2="47.5" y2="47.5" stroke="var(--color-board-placeholder-active-yji408, #d5dbdb)" stroke-linecap="square"/><line x1="0.5" y1="0.49122807" x2="0.5" y2="47.5" stroke="var(--color-board-placeholder-active-yji408, #d5dbdb)" stroke-linecap="square"/><use href="#icon-service-ecs" aria-hidden="true"><title>Elastic Container Service</title></use></g><g class="text-lines" transform="translate(-48,-24.5)"><text transform="translate(0,17)" class="line1"><tspan xml:space="preserve" text-anchor="start">ECS: RunTask</tspan></text><text transform="translate(0,35.5)" class="line2 label"><tspan xml:space="preserve" text-anchor="start">RunTask1</tspan></text></g></g></g></g><g class="node-container" transform="translate(791,1090.5)"><g class="sc-ERObt bWeRVe node state Task" data-testid="graph-DeleteCluster" data-state-id="DeleteCluster" data-state-type="Task"><g class="new-look-state-node "><rect x="-120" y="-24.5" width="240" height="49" rx="3" ry="3"/><g class="handle" transform="translate(-120,-24.5)"><path d="M5,16 L5,34 M8,16 L8,34"/></g><g class="icon" transform="translate(-104,-24)"><rect fill="var(--color-background-container-header-7s2tba, #fafafa)" x="0.0361026108" y="0.0181291967" width="48" height="48"/><line x1="47.5" y1="0.49122807" x2="47.5" y2="47.5" stroke="var(--color-board-placeholder-active-yji408, #d5dbdb)" stroke-linecap="square"/><line x1="0.5" y1="0.49122807" x2="0.5" y2="47.5" stroke="var(--color-board-placeholder-active-yji408, #d5dbdb)" stroke-linecap="square"/><use href="#icon-service-ecs" aria-hidden="true"><title>Elastic Container Service</title></use></g><g class="text-lines" transform="translate(-48,-24.5)"><text transform="translate(0,17)" class="line1"><tspan xml:space="preserve" text-anchor="start">ECS: DeleteCluster</tspan></text><text transform="translate(0,35.5)" class="line2 label"><tspan xml:space="preserve" text-anchor="start">DeleteCluster</tspan></text></g></g></g></g><g class="node-container" transform="translate(360.5,355.5)"><g class="sc-ERObt bWeRVe node state Pass" data-testid="graph-ExtractTask1Status" data-state-id="ExtractTask1Status" data-state-type="Pass"><g class="new-look-state-node "><rect x="-120" y="-24.5" width="240" height="49" rx="3" ry="3"/><g class="handle" transform="translate(-120,-24.5)"><path d="M5,16 L5,34 M8,16 L8,34"/></g><g class="icon" transform="translate(-104,-24)"><rect fill="var(--color-background-container-header-7s2tba, #fafafa)" x="0.0361026108" y="0.0181291967" width="48" height="48"/><line x1="47.5" y1="0.49122807" x2="47.5" y2="47.5" stroke="var(--color-board-placeholder-active-yji408, #d5dbdb)" stroke-linecap="square"/><line x1="0.5" y1="0.49122807" x2="0.5" y2="47.5" stroke="var(--color-board-placeholder-active-yji408, #d5dbdb)" stroke-linecap="square"/><use href="#icon-flow-pass"/></g><g class="text-lines" transform="translate(-48,-24.5)"><text transform="translate(0,17)" class="line1"><tspan xml:space="preserve" text-anchor="start">Pass state</tspan></text><text transform="translate(0,35.5)" class="line2 label"><tspan xml:space="preserve" text-anchor="start">ExtractTask1Status</tspan></text></g></g></g></g><g class="node-container" transform="translate(811,857.25)"><g class="sc-ERObt bWeRVe node state Task" data-testid="graph-DeregisterTaskDefinition1" data-state-id="DeregisterTaskDefinition1" data-state-type="Task"><g class="new-look-state-node "><rect x="-123" y="-24.5" width="246" height="49" rx="3" ry="3"/><g class="handle" transform="translate(-123,-24.5)"><path d="M5,16 L5,34 M8,16 L8,34"/></g><g class="icon" transform="translate(-107,-24)"><rect fill="var(--color-background-container-header-7s2tba, #fafafa)" x="0.0361026108" y="0.0181291967" width="48" height="48"/><line x1="47.5" y1="0.49122807" x2="47.5" y2="47.5" stroke="var(--color-board-placeholder-active-yji408, #d5dbdb)" stroke-linecap="square"/><line x1="0.5" y1="0.49122807" x2="0.5" y2="47.5" stroke="var(--color-board-placeholder-active-yji408, #d5dbdb)" stroke-linecap="square"/><use href="#icon-service-ecs" aria-hidden="true"><title>Elastic Container Service</title></use></g><g class="text-lines" transform="translate(-51,-24.5)"><text transform="translate(0,17)" class="line1"><tspan xml:space="preserve" text-anchor="start">ECS: DeregisterTaskDefinition</tspan></text><text transform="translate(0,35.5)" class="line2 label"><tspan xml:space="preserve" text-anchor="start">DeregisterTaskDefinition1</tspan></text></g></g></g></g><g class="node-container" transform="translate(360.5,439.5)"><g class="sc-ERObt bWeRVe node state Task" data-testid="graph-RegisterTaskDefinition2" data-state-id="RegisterTaskDefinition2" data-state-type="Task"><g class="new-look-state-node "><rect x="-120" y="-24.5" width="240" height="49" rx="3" ry="3"/><g class="handle" transform="translate(-120,-24.5)"><path d="M5,16 L5,34 M8,16 L8,34"/></g><g class="icon" transform="translate(-104,-24)"><rect fill="var(--color-background-container-header-7s2tba, #fafafa)" x="0.0361026108" y="0.0181291967" width="48" height="48"/><line x1="47.5" y1="0.49122807" x2="47.5" y2="47.5" stroke="var(--color-board-placeholder-active-yji408, #d5dbdb)" stroke-linecap="square"/><line x1="0.5" y1="0.49122807" x2="0.5" y2="47.5" stroke="var(--color-board-placeholder-active-yji408, #d5dbdb)" stroke-linecap="square"/><use href="#icon-service-ecs" aria-hidden="true"><title>Elastic Container Service</title></use></g><g class="text-lines" transform="translate(-48,-24.5)"><text transform="translate(0,17)" class="line1"><tspan xml:space="preserve" text-anchor="start">ECS: RegisterTaskDefinition</tspan></text><text transform="translate(0,35.5)" class="line2 label"><tspan xml:space="preserve" text-anchor="start">RegisterTaskDefinition2</tspan></text></g></g></g></g><g class="node-container" transform="translate(324,540)"><g class="sc-ERObt bWeRVe node state Task" data-testid="graph-RunTask2" data-state-id="RunTask2" data-state-type="Task"><g class="new-look-state-node "><rect x="-120" y="-24.5" width="240" height="49" rx="3" ry="3"/><g class="handle" transform="translate(-120,-24.5)"><path d="M5,16 L5,34 M8,16 L8,34"/></g><g class="icon" transform="translate(-104,-24)"><rect fill="var(--color-background-container-header-7s2tba, #fafafa)" x="0.0361026108" y="0.0181291967" width="48" height="48"/><line x1="47.5" y1="0.49122807" x2="47.5" y2="47.5" stroke="var(--color-board-placeholder-active-yji408, #d5dbdb)" stroke-linecap="square"/><line x1="0.5" y1="0.49122807" x2="0.5" y2="47.5" stroke="var(--color-board-placeholder-active-yji408, #d5dbdb)" stroke-linecap="square"/><use href="#icon-service-ecs" aria-hidden="true"><title>Elastic Container Service</title></use></g><g class="text-lines" transform="translate(-48,-24.5)"><text transform="translate(0,17)" class="line1"><tspan xml:space="preserve" text-anchor="start">ECS: RunTask</tspan></text><text transform="translate(0,35.5)" class="line2 label"><tspan xml:space="preserve" text-anchor="start">RunTask2</tspan></text></g></g></g></g><g class="node-container" transform="translate(246.5,640.5)"><g class="sc-ERObt bWeRVe node state Pass" data-testid="graph-ExtractTask2Status" data-state-id="ExtractTask2Status" data-state-type="Pass"><g class="new-look-state-node "><rect x="-120" y="-24.5" width="240" height="49" rx="3" ry="3"/><g class="handle" transform="translate(-120,-24.5)"><path d="M5,16 L5,34 M8,16 L8,34"/></g><g class="icon" transform="translate(-104,-24)"><rect fill="var(--color-background-container-header-7s2tba, #fafafa)" x="0.0361026108" y="0.0181291967" width="48" height="48"/><line x1="47.5" y1="0.49122807" x2="47.5" y2="47.5" stroke="var(--color-board-placeholder-active-yji408, #d5dbdb)" stroke-linecap="square"/><line x1="0.5" y1="0.49122807" x2="0.5" y2="47.5" stroke="var(--color-board-placeholder-active-yji408, #d5dbdb)" stroke-linecap="square"/><use href="#icon-flow-pass"/></g><g class="text-lines" transform="translate(-48,-24.5)"><text transform="translate(0,17)" class="line1"><tspan xml:space="preserve" text-anchor="start">Pass state</tspan></text><text transform="translate(0,35.5)" class="line2 label"><tspan xml:space="preserve" text-anchor="start">ExtractTask2Status</tspan></text></g></g></g></g><g class="node-container" transform="translate(324,857.25)"><g class="sc-ERObt bWeRVe node state container Parallel" data-testid="graph-CleanupBothTaskDefinitions" data-state-id="CleanupBothTaskDefinitions" data-state-type="Parallel"><g class="new-look-state-node "><g class="bounding-box" transform="translate(0,5)"><rect class="sc-epALIP dsPBxu shape" rx="7" ry="7" x="-324" y="-157.25" width="648" height="309.5"/><g class="content" transform="translate(-324,-157.25)"><g class="branch" transform="translate(20,89)"><g class="branchInsertArea" data-insertion-index="0" data-parent-state-id="CleanupBothTaskDefinitions" id="CleanupBothTaskDefinitions:0" x="-20" y="0" width="20" height="200.5"><rect x="-20" y="0" width="20" height="200.5" stroke="none" fill="none"/><path d="M-10,0 l0,200.5" stroke="none" fill="none"/></g><g transform=""><g class="nodes"><g class="node-container" transform="translate(147,24.5)"><g class="sc-ERObt bWeRVe node state Task" data-testid="graph-DeregisterTaskDefinition1Success" data-state-id="DeregisterTaskDefinition1Success" data-state-type="Task"><g class="new-look-state-node "><rect x="-147" y="-24.5" width="294" height="49" rx="3" ry="3"/><g class="handle" transform="translate(-147,-24.5)"><path d="M5,16 L5,34 M8,16 L8,34"/></g><g class="icon" transform="translate(-131,-24)"><rect fill="var(--color-background-container-header-7s2tba, #fafafa)" x="0.0361026108" y="0.0181291967" width="48" height="48"/><line x1="47.5" y1="0.49122807" x2="47.5" y2="47.5" stroke="var(--color-board-placeholder-active-yji408, #d5dbdb)" stroke-linecap="square"/><line x1="0.5" y1="0.49122807" x2="0.5" y2="47.5" stroke="var(--color-board-placeholder-active-yji408, #d5dbdb)" stroke-linecap="square"/><use href="#icon-service-ecs" aria-hidden="true"><title>Elastic Container Service</title></use></g><g class="text-lines" transform="translate(-75,-24.5)"><text transform="translate(0,17)" class="line1"><tspan xml:space="preserve" text-anchor="start">ECS: DeregisterTaskDefinition</tspan></text><text transform="translate(0,35.5)" class="line2 label"><tspan xml:space="preserve" text-anchor="start">DeregisterTaskDefinition1Success</tspan></text></g></g></g></g><g class="node-container" transform="translate(147,125)"><g class="sc-ERObt bWeRVe node state Pass" data-testid="graph-CleanupBranchPass1" data-state-id="CleanupBranchPass1" data-state-type="Pass"><g class="new-look-state-node "><rect x="-120" y="-24.5" width="240" height="49" rx="3" ry="3"/><g class="handle" transform="translate(-120,-24.5)"><path d="M5,16 L5,34 M8,16 L8,34"/></g><g class="icon" transform="translate(-104,-24)"><rect fill="var(--color-background-container-header-7s2tba, #fafafa)" x="0.0361026108" y="0.0181291967" width="48" height="48"/><line x1="47.5" y1="0.49122807" x2="47.5" y2="47.5" stroke="var(--color-board-placeholder-active-yji408, #d5dbdb)" stroke-linecap="square"/><line x1="0.5" y1="0.49122807" x2="0.5" y2="47.5" stroke="var(--color-board-placeholder-active-yji408, #d5dbdb)" stroke-linecap="square"/><use href="#icon-flow-pass"/></g><g class="text-lines" transform="translate(-48,-24.5)"><text transform="translate(0,17)" class="line1"><tspan xml:space="preserve" text-anchor="start">Pass state</tspan></text><text transform="translate(0,35.5)" class="line2 label"><tspan xml:space="preserve" text-anchor="start">CleanupBranchPass1</tspan></text></g></g></g></g><g class="node-container" transform="translate(147,192.5)"><g><circle class="sc-dJiZtA duZZsL shape" r="8"/></g></g></g><g class="edges"><g class="sc-dNsVcS hCEWiS edge"><path id="state-DeregisterTaskDefinition1Success:state-CleanupBranchPass1:normal" d="M139.6865671641791,49L138.40547263681592,53.291666666666664C137.12437810945275,57.583333333333336,134.56218905472636,66.16666666666667,134.56218905472636,74.75C134.56218905472636,83.33333333333333,137.12437810945275,91.91666666666667,138.40547263681592,96.20833333333333L139.6865671641791,100.5" marker-end="url(#arrowhead)" fill="none"/></g><g class="sc-dNsVcS hCEWiS edge"><path id="state-DeregisterTaskDefinition1Success:state-CleanupBranchPass1:catch:0" d="M154.3134328358209,49L155.59452736318408,53.291666666666664C156.87562189054725,57.583333333333336,159.43781094527364,66.16666666666667,159.43781094527364,74.75C159.43781094527364,83.33333333333333,156.87562189054725,91.91666666666667,155.59452736318408,96.20833333333333L154.3134328358209,100.5" marker-end="url(#arrowhead)" fill="none"/><g data-testid="graph-DeregisterTaskDefinition1Success-0" class="edge-label" transform="translate(159.43781094527364,74.75)"><rect x="-25" y="-8.25" width="50" height="16.5" class="sc-fulCBj hisqus"/><text class="sc-kMribo hkRJpl label"><tspan xml:space="preserve" text-anchor="middle" alignment-baseline="central">Catch #1</tspan><title>Catch #1</title></text></g></g><g class="sc-dNsVcS hCEWiS edge"><path id="state-CleanupBranchPass1:end:normal" d="M147,149.5L147,152.41666666666666C147,155.33333333333334,147,161.16666666666666,147,167C147,172.83333333333334,147,178.66666666666666,147,181.58333333333334L147,184.5" marker-end="url(#arrowhead)" fill="none"/></g></g></g><g class="branchInsertArea" data-insertion-index="1" data-parent-state-id="CleanupBothTaskDefinitions" id="CleanupBothTaskDefinitions:1" x="294" y="0" width="20" height="200.5"><rect x="294" y="0" width="20" height="200.5" stroke="none" fill="none"/><path d="M304,0 l0,200.5" stroke="none" fill="none"/></g></g><g class="branch" transform="translate(334,89)"><g transform=""><g class="nodes"><g class="node-container" transform="translate(147,24.5)"><g class="sc-ERObt bWeRVe node state Task" data-testid="graph-DeregisterTaskDefinition2Success" data-state-id="DeregisterTaskDefinition2Success" data-state-type="Task"><g class="new-look-state-node "><rect x="-147" y="-24.5" width="294" height="49" rx="3" ry="3"/><g class="handle" transform="translate(-147,-24.5)"><path d="M5,16 L5,34 M8,16 L8,34"/></g><g class="icon" transform="translate(-131,-24)"><rect fill="var(--color-background-container-header-7s2tba, #fafafa)" x="0.0361026108" y="0.0181291967" width="48" height="48"/><line x1="47.5" y1="0.49122807" x2="47.5" y2="47.5" stroke="var(--color-board-placeholder-active-yji408, #d5dbdb)" stroke-linecap="square"/><line x1="0.5" y1="0.49122807" x2="0.5" y2="47.5" stroke="var(--color-board-placeholder-active-yji408, #d5dbdb)" stroke-linecap="square"/><use href="#icon-service-ecs" aria-hidden="true"><title>Elastic Container Service</title></use></g><g class="text-lines" transform="translate(-75,-24.5)"><text transform="translate(0,17)" class="line1"><tspan xml:space="preserve" text-anchor="start">ECS: DeregisterTaskDefinition</tspan></text><text transform="translate(0,35.5)" class="line2 label"><tspan xml:space="preserve" text-anchor="start">DeregisterTaskDefinition2Success</tspan></text></g></g></g></g><g class="node-container" transform="translate(147,125)"><g class="sc-ERObt bWeRVe node state Pass" data-testid="graph-CleanupBranchPass2" data-state-id="CleanupBranchPass2" data-state-type="Pass"><g class="new-look-state-node "><rect x="-120" y="-24.5" width="240" height="49" rx="3" ry="3"/><g class="handle" transform="translate(-120,-24.5)"><path d="M5,16 L5,34 M8,16 L8,34"/></g><g class="icon" transform="translate(-104,-24)"><rect fill="var(--color-background-container-header-7s2tba, #fafafa)" x="0.0361026108" y="0.0181291967" width="48" height="48"/><line x1="47.5" y1="0.49122807" x2="47.5" y2="47.5" stroke="var(--color-board-placeholder-active-yji408, #d5dbdb)" stroke-linecap="square"/><line x1="0.5" y1="0.49122807" x2="0.5" y2="47.5" stroke="var(--color-board-placeholder-active-yji408, #d5dbdb)" stroke-linecap="square"/><use href="#icon-flow-pass"/></g><g class="text-lines" transform="translate(-48,-24.5)"><text transform="translate(0,17)" class="line1"><tspan xml:space="preserve" text-anchor="start">Pass state</tspan></text><text transform="translate(0,35.5)" class="line2 label"><tspan xml:space="preserve" text-anchor="start">CleanupBranchPass2</tspan></text></g></g></g></g><g class="node-container" transform="translate(147,192.5)"><g><circle class="sc-dJiZtA duZZsL shape" r="8"/></g></g></g><g class="edges"><g class="sc-dNsVcS hCEWiS edge"><path id="state-DeregisterTaskDefinition2Success:state-CleanupBranchPass2:normal" d="M139.6865671641791,49L138.40547263681592,53.291666666666664C137.12437810945275,57.583333333333336,134.56218905472636,66.16666666666667,134.56218905472636,74.75C134.56218905472636,83.33333333333333,137.12437810945275,91.91666666666667,138.40547263681592,96.20833333333333L139.6865671641791,100.5" marker-end="url(#arrowhead)" fill="none"/></g><g class="sc-dNsVcS hCEWiS edge"><path id="state-DeregisterTaskDefinition2Success:state-CleanupBranchPass2:catch:0" d="M154.3134328358209,49L155.59452736318408,53.291666666666664C156.87562189054725,57.583333333333336,159.43781094527364,66.16666666666667,159.43781094527364,74.75C159.43781094527364,83.33333333333333,156.87562189054725,91.91666666666667,155.59452736318408,96.20833333333333L154.3134328358209,100.5" marker-end="url(#arrowhead)" fill="none"/><g data-testid="graph-DeregisterTaskDefinition2Success-0" class="edge-label" transform="translate(159.43781094527364,74.75)"><rect x="-25" y="-8.25" width="50" height="16.5" class="sc-fulCBj hisqus"/><text class="sc-kMribo hkRJpl label"><tspan xml:space="preserve" text-anchor="middle" alignment-baseline="central">Catch #1</tspan><title>Catch #1</title></text></g></g><g class="sc-dNsVcS hCEWiS edge"><path id="state-CleanupBranchPass2:end:normal" d="M147,149.5L147,152.41666666666666C147,155.33333333333334,147,161.16666666666666,147,167C147,172.83333333333334,147,178.66666666666666,147,181.58333333333334L147,184.5" marker-end="url(#arrowhead)" fill="none"/></g></g></g><g class="branchInsertArea" data-insertion-index="2" data-parent-state-id="CleanupBothTaskDefinitions" id="CleanupBothTaskDefinitions:2" x="294" y="0" width="20" height="200.5"><rect x="294" y="0" width="20" height="200.5" stroke="none" fill="none"/><path d="M304,0 l0,200.5" stroke="none" fill="none"/></g></g><g class="sc-dNsVcS hCEWiS"><path id="CleanupBothTaskDefinitions-DeregisterTaskDefinition1Success" class="path starting-connection" d="M324,44L324,47.75C324,51.5,324,59,297.8333333333333,62.75C271.6666666666667,66.5,219.33333333333334,66.5,193.16666666666666,70.25C167,74,167,81.5,167,85.25L167,89" fill="none"/></g><g class="sc-dNsVcS hCEWiS"><path id="CleanupBothTaskDefinitions-DeregisterTaskDefinition2Success" class="path starting-connection" d="M324,44L324,47.75C324,51.5,324,59,350.1666666666667,62.75C376.3333333333333,66.5,428.6666666666667,66.5,454.8333333333333,70.25C481,74,481,81.5,481,85.25L481,89" fill="none"/></g></g></g><g class="new-look-state-node "><rect x="-130.5" y="-157.25" width="261" height="49" rx="3" ry="3"/><g class="handle" transform="translate(-130.5,-157.25)"><path d="M5,16 L5,34 M8,16 L8,34"/></g><g class="icon" transform="translate(-114.5,-156.75)"><rect fill="var(--color-background-container-header-7s2tba, #fafafa)" x="0.0361026108" y="0.0181291967" width="48" height="48"/><line x1="47.5" y1="0.49122807" x2="47.5" y2="47.5" stroke="var(--color-board-placeholder-active-yji408, #d5dbdb)" stroke-linecap="square"/><line x1="0.5" y1="0.49122807" x2="0.5" y2="47.5" stroke="var(--color-board-placeholder-active-yji408, #d5dbdb)" stroke-linecap="square"/><use href="#icon-flow-parallel"/></g><g class="text-lines" transform="translate(-58.5,-157.25)"><text transform="translate(0,17)" class="line1"><tspan xml:space="preserve" text-anchor="start">Parallel state</tspan></text><text transform="translate(0,35.5)" class="line2 label"><tspan xml:space="preserve" text-anchor="start">CleanupBothTaskDefinitions</tspan></text></g></g></g></g></g><g class="node-container" transform="translate(511,1191)"><g class="sc-ERObt bWeRVe node state Task" data-testid="graph-NotifySuccess" data-state-id="NotifySuccess" data-state-type="Task"><g class="new-look-state-node "><rect x="-120" y="-24.5" width="240" height="49" rx="3" ry="3"/><g class="handle" transform="translate(-120,-24.5)"><path d="M5,16 L5,34 M8,16 L8,34"/></g><g class="icon" transform="translate(-104,-24)"><rect fill="var(--color-background-container-header-7s2tba, #fafafa)" x="0.0361026108" y="0.0181291967" width="48" height="48"/><line x1="47.5" y1="0.49122807" x2="47.5" y2="47.5" stroke="var(--color-board-placeholder-active-yji408, #d5dbdb)" stroke-linecap="square"/><line x1="0.5" y1="0.49122807" x2="0.5" y2="47.5" stroke="var(--color-board-placeholder-active-yji408, #d5dbdb)" stroke-linecap="square"/><use href="#icon-service-sns" aria-hidden="true"><title>Simple Notification Service</title></use></g><g class="text-lines" transform="translate(-48,-24.5)"><text transform="translate(0,17)" class="line1"><tspan xml:space="preserve" text-anchor="start">SNS: Publish</tspan></text><text transform="translate(0,35.5)" class="line2 label"><tspan xml:space="preserve" text-anchor="start">NotifySuccess</tspan></text></g></g></g></g><g class="node-container" transform="translate(807.5,1191)"><g class="sc-ERObt bWeRVe node state Task" data-testid="graph-NotifyCleanupFailure" data-state-id="NotifyCleanupFailure" data-state-type="Task"><g class="new-look-state-node "><rect x="-120" y="-24.5" width="240" height="49" rx="3" ry="3"/><g class="handle" transform="translate(-120,-24.5)"><path d="M5,16 L5,34 M8,16 L8,34"/></g><g class="icon" transform="translate(-104,-24)"><rect fill="var(--color-background-container-header-7s2tba, #fafafa)" x="0.0361026108" y="0.0181291967" width="48" height="48"/><line x1="47.5" y1="0.49122807" x2="47.5" y2="47.5" stroke="var(--color-board-placeholder-active-yji408, #d5dbdb)" stroke-linecap="square"/><line x1="0.5" y1="0.49122807" x2="0.5" y2="47.5" stroke="var(--color-board-placeholder-active-yji408, #d5dbdb)" stroke-linecap="square"/><use href="#icon-service-sns" aria-hidden="true"><title>Simple Notification Service</title></use></g><g class="text-lines" transform="translate(-48,-24.5)"><text transform="translate(0,17)" class="line1"><tspan xml:space="preserve" text-anchor="start">SNS: Publish</tspan></text><text transform="translate(0,35.5)" class="line2 label"><tspan xml:space="preserve" text-anchor="start">NotifyCleanupFailure</tspan></text></g></g></g></g><g class="node-container" transform="translate(931,1272.5)"><g><circle class="sc-kCMKrZ cECDmZ shape" r="22"/><text class="sc-imwsjW frydMn label"><tspan xml:space="preserve" text-anchor="middle" alignment-baseline="central">End</tspan></text></g></g><g class="node-container" transform="translate(1087.5,1191)"><g class="sc-ERObt bWeRVe node state Fail" data-testid="graph-WorkflowFailed" data-state-id="WorkflowFailed" data-state-type="Fail"><g class="new-look-state-node "><rect x="-120" y="-24.5" width="240" height="49" rx="3" ry="3"/><g class="handle" transform="translate(-120,-24.5)"><path d="M5,16 L5,34 M8,16 L8,34"/></g><g class="icon" transform="translate(-104,-24)"><rect fill="var(--color-background-container-header-7s2tba, #fafafa)" x="0.0361026108" y="0.0181291967" width="48" height="48"/><line x1="47.5" y1="0.49122807" x2="47.5" y2="47.5" stroke="var(--color-board-placeholder-active-yji408, #d5dbdb)" stroke-linecap="square"/><line x1="0.5" y1="0.49122807" x2="0.5" y2="47.5" stroke="var(--color-board-placeholder-active-yji408, #d5dbdb)" stroke-linecap="square"/><use href="#icon-flow-fail"/></g><g class="text-lines" transform="translate(-48,-24.5)"><text transform="translate(0,17)" class="line1"><tspan xml:space="preserve" text-anchor="start">Fail state</tspan></text><text transform="translate(0,35.5)" class="line2 label"><tspan xml:space="preserve" text-anchor="start">WorkflowFailed</tspan></text></g></g></g></g></g><g class="edges"><g class="sc-dNsVcS hCEWiS edge"><path id="state-CreateCluster:state-RegisterTaskDefinition1:normal" d="M642.3333333333334,128L632.6111111111112,130.91666666666666C622.8888888888889,133.83333333333334,603.4444444444445,139.66666666666666,593.7222222222223,145.5C584,151.33333333333334,584,157.16666666666666,584,160.08333333333334L584,163" marker-end="url(#arrowhead)" fill="none"/></g><g class="sc-dNsVcS hCEWiS edge"><path id="state-CreateCluster:state-NotifyGeneralFailure:catch:0" d="M844,117.36519944979368L884.5833333333334,122.05433287482806C925.1666666666666,126.74346629986246,1006.3333333333334,136.12173314993123,1046.9166666666667,147.81086657496562C1087.5,159.5,1087.5,173.5,1087.5,187.5C1087.5,201.5,1087.5,215.5,1087.5,229.5C1087.5,243.5,1087.5,257.5,1087.5,271.5C1087.5,285.5,1087.5,299.5,1087.5,313.5C1087.5,327.5,1087.5,341.5,1087.5,355.5C1087.5,369.5,1087.5,383.5,1087.5,397.5C1087.5,411.5,1087.5,425.5,1087.5,440.875C1087.5,456.25,1087.5,473,1087.5,489.75C1087.5,506.5,1087.5,523.25,1087.5,540C1087.5,556.75,1087.5,573.5,1087.5,590.25C1087.5,607,1087.5,623.75,1087.5,639.125C1087.5,654.5,1087.5,668.5,1087.5,704.625C1087.5,740.75,1087.5,799,1087.5,858.625C1087.5,918.25,1087.5,979.25,1087.5,1014.0416666666666C1087.5,1048.8333333333333,1087.5,1057.4166666666667,1087.5,1061.7083333333333L1087.5,1066" marker-end="url(#arrowhead)" fill="none"/><g data-testid="graph-CreateCluster-0" class="edge-label" transform="translate(1046.9166666666667,147.81086657496562)"><rect x="-25" y="-8.25" width="50" height="16.5" class="sc-fulCBj hisqus"/><text class="sc-kMribo hkRJpl label"><tspan xml:space="preserve" text-anchor="middle" alignment-baseline="central">Catch #1</tspan><title>Catch #1</title></text></g></g><g class="sc-dNsVcS hCEWiS edge"><path id="start:state-CreateCluster" d="M724,44L724,46.916666666666664C724,49.833333333333336,724,55.666666666666664,724,61.5C724,67.33333333333333,724,73.16666666666667,724,76.08333333333333L724,79" marker-end="url(#arrowhead)" fill="none"/></g><g class="sc-dNsVcS hCEWiS edge"><path id="state-RegisterTaskDefinition1:state-RunTask1:normal" d="M537.9166666666666,212L532.4305555555555,214.91666666666666C526.9444444444445,217.83333333333334,515.9722222222222,223.66666666666666,510.4861111111111,229.5C505,235.33333333333334,505,241.16666666666666,505,244.08333333333334L505,247" marker-end="url(#arrowhead)" fill="none"/></g><g class="sc-dNsVcS hCEWiS edge"><path id="state-RegisterTaskDefinition1:state-DeleteCluster:catch:0" d="M704,200.55699481865284L748.3333333333334,205.38082901554404C792.6666666666666,210.2046632124352,881.3333333333334,219.8523316062176,925.6666666666666,231.6761658031088C970,243.5,970,257.5,970,271.5C970,285.5,970,299.5,970,313.5C970,327.5,970,341.5,970,355.5C970,369.5,970,383.5,970,397.5C970,411.5,970,425.5,970,440.875C970,456.25,970,473,970,489.75C970,506.5,970,523.25,970,540C970,556.75,970,573.5,970,590.25C970,607,970,623.75,970,639.125C970,654.5,970,668.5,970,704.625C970,740.75,970,799,970,858.625C970,918.25,970,979.25,954.712271973466,1014.0416666666666C939.424543946932,1048.8333333333333,908.8490878938641,1057.4166666666667,893.56135986733,1061.7083333333333L878.273631840796,1066" marker-end="url(#arrowhead)" fill="none"/><g data-testid="graph-RegisterTaskDefinition1-0" class="edge-label" transform="translate(925.6666666666666,231.6761658031088)"><rect x="-25" y="-8.25" width="50" height="16.5" class="sc-fulCBj hisqus"/><text class="sc-kMribo hkRJpl label"><tspan xml:space="preserve" text-anchor="middle" alignment-baseline="central">Catch #1</tspan><title>Catch #1</title></text></g></g><g class="sc-dNsVcS hCEWiS edge"><path id="state-RunTask1:state-ExtractTask1Status:normal" d="M420.7083333333333,296L410.6736111111111,298.9166666666667C400.63888888888886,301.8333333333333,380.5694444444444,307.6666666666667,370.5347222222222,313.5C360.5,319.3333333333333,360.5,325.1666666666667,360.5,328.0833333333333L360.5,331" marker-end="url(#arrowhead)" fill="none"/></g><g class="sc-dNsVcS hCEWiS edge"><path id="state-RunTask1:state-DeregisterTaskDefinition1:catch:0" d="M625,286.0664739884393L662.6666666666666,290.63872832369947C700.3333333333334,295.21098265895955,775.6666666666666,304.3554913294798,813.3333333333334,315.9277456647399C851,327.5,851,341.5,851,355.5C851,369.5,851,383.5,851,397.5C851,411.5,851,425.5,851,440.875C851,456.25,851,473,851,489.75C851,506.5,851,523.25,851,540C851,556.75,851,573.5,851,590.25C851,607,851,623.75,851,639.125C851,654.5,851,668.5,845.2680019074869,700.5416666666666C839.5360038149738,732.5833333333334,828.0720076299476,782.6666666666666,822.3400095374345,807.7083333333334L816.6080114449213,832.75" marker-end="url(#arrowhead)" fill="none"/><g data-testid="graph-RunTask1-0" class="edge-label" transform="translate(813.3333333333334,315.9277456647399)"><rect x="-25" y="-8.25" width="50" height="16.5" class="sc-fulCBj hisqus"/><text class="sc-kMribo hkRJpl label"><tspan xml:space="preserve" text-anchor="middle" alignment-baseline="central">Catch #1</tspan><title>Catch #1</title></text></g></g><g class="sc-dNsVcS hCEWiS edge"><path id="state-ExtractTask1Status:state-RegisterTaskDefinition2:normal" d="M360.5,380L360.5,382.9166666666667C360.5,385.8333333333333,360.5,391.6666666666667,360.5,397.5C360.5,403.3333333333333,360.5,409.1666666666667,360.5,412.0833333333333L360.5,415" marker-end="url(#arrowhead)" fill="none"/></g><g class="sc-dNsVcS hCEWiS edge"><path id="state-RegisterTaskDefinition2:state-RunTask2:normal" d="M342.7039800995025,464L339.58665008291877,468.2916666666667C336.469320066335,472.5833333333333,330.2346600331675,481.1666666666667,327.11733001658376,489.75C324,498.3333333333333,324,506.9166666666667,324,511.2083333333333L324,515.5" marker-end="url(#arrowhead)" fill="none"/></g><g class="sc-dNsVcS hCEWiS edge"><path id="state-RegisterTaskDefinition2:state-DeregisterTaskDefinition1:catch:0" d="M480.5,460.695079086116L507.9166666666667,465.53756590509664C535.3333333333334,470.38005272407736,590.1666666666666,480.0650263620387,617.5833333333334,493.28251318101934C645,506.5,645,523.25,645,540C645,556.75,645,573.5,645,590.25C645,607,645,623.75,645,639.125C645,654.5,645,668.5,668.7877920839295,700.5416666666666C692.5755841678589,732.5833333333334,740.1511683357177,782.6666666666666,763.9389604196472,807.7083333333334L787.7267525035766,832.75" marker-end="url(#arrowhead)" fill="none"/><g data-testid="graph-RegisterTaskDefinition2-0" class="edge-label" transform="translate(617.5833333333334,493.28251318101934)"><rect x="-25" y="-8.25" width="50" height="16.5" class="sc-fulCBj hisqus"/><text class="sc-kMribo hkRJpl label"><tspan xml:space="preserve" text-anchor="middle" alignment-baseline="central">Catch #1</tspan><title>Catch #1</title></text></g></g><g class="sc-dNsVcS hCEWiS edge"><path id="state-RunTask2:state-ExtractTask2Status:normal" d="M286.2139303482587,564.5L279.5949419568822,568.7916666666666C272.9759535655058,573.0833333333334,259.7379767827529,581.6666666666666,253.11898839137643,590.25C246.5,598.8333333333334,246.5,607.4166666666666,246.5,611.7083333333334L246.5,616" marker-end="url(#arrowhead)" fill="none"/></g><g class="sc-dNsVcS hCEWiS edge"><path id="state-RunTask2:state-CleanupBothTaskDefinitions:catch:0" d="M423.21890547263683,564.5L440.599087893864,568.7916666666666C457.97927031509124,573.0833333333334,492.7396351575456,581.6666666666666,510.1198175787728,594.3333333333334C527.5,607,527.5,623.75,527.5,639.125C527.5,654.5,527.5,668.5,524.1034811635669,678.4166666666666C520.706962327134,688.3333333333334,513.913924654268,694.1666666666666,510.51740581783497,697.0833333333334L507.120886981402,700" marker-end="url(#arrowhead)" fill="none"/><g data-testid="graph-RunTask2-0" class="edge-label" transform="translate(510.1198175787728,594.3333333333334)"><rect x="-25" y="-8.25" width="50" height="16.5" class="sc-fulCBj hisqus"/><text class="sc-kMribo hkRJpl label"><tspan xml:space="preserve" text-anchor="middle" alignment-baseline="central">Catch #1</tspan><title>Catch #1</title></text></g></g><g class="sc-dNsVcS hCEWiS edge"><path id="state-ExtractTask2Status:state-CleanupBothTaskDefinitions:normal" d="M246.5,665L246.5,667.9166666666666C246.5,670.8333333333334,246.5,676.6666666666666,247.7935145445875,682.5C249.087029089175,688.3333333333334,251.67405817835004,694.1666666666666,252.96757272293755,697.0833333333334L254.26108726752506,700" marker-end="url(#arrowhead)" fill="none"/></g><g class="sc-dNsVcS hCEWiS edge"><path id="state-CleanupBothTaskDefinitions:state-DeleteCluster:normal" d="M324,1014.5L324,1018.7916666666666C324,1023.0833333333334,324,1031.6666666666667,381.8333333333333,1042.1812990720914C439.6666666666667,1052.695931477516,555.3333333333334,1065.1418629550321,613.1666666666666,1071.3648286937903L671,1077.5877944325482" marker-end="url(#arrowhead)" fill="none"/></g><g class="sc-dNsVcS hCEWiS edge"><path id="state-DeleteCluster:state-NotifySuccess:normal" d="M671,1112.0357142857142L644.3333333333334,1116.8214285714284C617.6666666666666,1121.607142857143,564.3333333333334,1131.1785714285713,537.6666666666666,1140.2559523809523C511,1149.3333333333333,511,1157.9166666666667,511,1162.2083333333333L511,1166.5" marker-end="url(#arrowhead)" fill="none"/></g><g class="sc-dNsVcS hCEWiS edge"><path id="state-DeleteCluster:state-NotifyCleanupFailure:catch:0" d="M799.044776119403,1115L800.4539800995025,1119.2916666666667C801.863184079602,1123.5833333333333,804.6815920398009,1132.1666666666667,806.0907960199005,1140.75C807.5,1149.3333333333333,807.5,1157.9166666666667,807.5,1162.2083333333333L807.5,1166.5" marker-end="url(#arrowhead)" fill="none"/><g data-testid="graph-DeleteCluster-0" class="edge-label" transform="translate(806.0907960199005,1140.75)"><rect x="-25" y="-8.25" width="50" height="16.5" class="sc-fulCBj hisqus"/><text class="sc-kMribo hkRJpl label"><tspan xml:space="preserve" text-anchor="middle" alignment-baseline="central">Catch #1</tspan><title>Catch #1</title></text></g></g><g class="sc-dNsVcS hCEWiS edge"><path id="state-NotifySuccess:end:normal" d="M511,1215.5L511,1218.4166666666667C511,1221.3333333333333,511,1227.1666666666667,577.3494422996346,1236.3233404067514C643.6988845992693,1245.480014146836,776.3977691985384,1257.960028293672,842.747211498173,1264.20003536709L909.0966537978077,1270.440042440508" marker-end="url(#arrowhead)" fill="none"/></g><g class="sc-dNsVcS hCEWiS edge"><path id="state-DeregisterTaskDefinition1:state-DeleteCluster:normal" d="M780.4084699453551,881.75L747.4237249544626,908.1666666666666C714.4389799635701,934.5833333333334,648.469489981785,987.4166666666666,633.2919589212407,1018.125C618.1144278606965,1048.8333333333333,653.728855721393,1057.4166666666667,671.5360696517413,1061.7083333333333L689.3432835820895,1066" marker-end="url(#arrowhead)" fill="none"/></g><g class="sc-dNsVcS hCEWiS edge"><path id="state-DeregisterTaskDefinition1:state-DeleteCluster:catch:0" d="M816.3551912568306,881.75L822.1293260473589,908.1666666666666C827.903460837887,934.5833333333334,839.4517304189435,987.4166666666666,840.1014871000192,1018.125C840.7512437810946,1048.8333333333333,830.502487562189,1057.4166666666667,825.3781094527363,1061.7083333333333L820.2537313432836,1066" marker-end="url(#arrowhead)" fill="none"/><g data-testid="graph-DeregisterTaskDefinition1-0" class="edge-label" transform="translate(840.1014871000192,1018.125)"><rect x="-25" y="-8.25" width="50" height="16.5" class="sc-fulCBj hisqus"/><text class="sc-kMribo hkRJpl label"><tspan xml:space="preserve" text-anchor="middle" alignment-baseline="central">Catch #1</tspan><title>Catch #1</title></text></g></g><g class="sc-dNsVcS hCEWiS edge"><path id="state-NotifyGeneralFailure:state-WorkflowFailed:normal" d="M1087.5,1115L1087.5,1119.2916666666667C1087.5,1123.5833333333333,1087.5,1132.1666666666667,1087.5,1140.75C1087.5,1149.3333333333333,1087.5,1157.9166666666667,1087.5,1162.2083333333333L1087.5,1166.5" marker-end="url(#arrowhead)" fill="none"/></g><g class="sc-dNsVcS hCEWiS edge"><path id="state-NotifyCleanupFailure:end:normal" d="M807.5,1215.5L807.5,1218.4166666666667C807.5,1221.3333333333333,807.5,1227.1666666666667,824.5909473271017,1235.5496687132566C841.6818946542035,1243.9326707598464,875.863789308407,1254.865341519693,892.9547366355088,1260.3316768996162L910.0456839626106,1265.7980122795393" marker-end="url(#arrowhead)" fill="none"/></g><g class="sc-dNsVcS hCEWiS edge"><path id="state-WorkflowFailed:end:normal" d="M1087.5,1215.5L1087.5,1218.4166666666667C1087.5,1221.3333333333333,1087.5,1227.1666666666667,1064.9718423766064,1235.7693539475445C1042.443684753213,1244.3720412284222,997.3873695064258,1255.7440824568446,974.8592118830323,1261.4301030710558L952.3310542596388,1267.116123685267" marker-end="url(#arrowhead)" fill="none"/></g></g><defs><marker id="arrowhead" markerWidth="8" markerHeight="6" refX="7" refY="3" orient="auto" class="sc-dQEtJz gDaANQ"><polygon points="0 0, 8 3, 0 6"/></marker><marker id="highlighted-arrowhead" markerWidth="6" markerHeight="4" refX="5" refY="2" orient="auto" class="sc-dQEtJz gDaANQ"><polygon points="0 0, 6 2, 0 4"/></marker><marker id="error-arrowhead" markerWidth="6" markerHeight="4" refX="5" refY="2" orient="auto" class="sc-dQEtJz gDaANQ"><polygon points="0 0, 6 2, 0 4"/></marker><marker id="large-arrowhead" markerWidth="10" markerHeight="8" refX="9" refY="4" orient="auto" class="sc-dQEtJz gDaANQ"><polygon points="0 0, 10 4, 0 8"/></marker><marker id="large-highlighted-arrowhead" markerWidth="5.5" markerHeight="4" refX="4.5" refY="2" orient="auto" class="sc-dQEtJz gDaANQ"><polygon points="0 0, 5.5 2, 0 4"/></marker><marker id="large-error-arrowhead" markerWidth="10" markerHeight="8" refX="9" refY="4" orient="auto" class="sc-dQEtJz gDaANQ"><polygon points="0 0, 10 4, 0 8"/></marker><linearGradient x1="0%" y1="100%" x2="100%" y2="0%" id="gradient-orange"><stop stop-color="#C8511B" offset="0%"/><stop stop-color="#FF9900" offset="100%"/></linearGradient><linearGradient x1="0%" y1="100%" x2="100%" y2="0%" id="gradient-turquoise"><stop stop-color="#055F4E" offset="0%"/><stop stop-color="#56C0A7" offset="100%"/></linearGradient><linearGradient x1="0%" y1="100%" x2="100%" y2="0%" id="gradient-blue"><stop stop-color="#2E27AD" offset="0%"/><stop stop-color="#527FFF" offset="100%"/></linearGradient><linearGradient x1="0%" y1="100%" x2="100%" y2="0%" id="gradient-pink"><stop stop-color="#B0084D" offset="0%"/><stop stop-color="#FF4F8B" offset="100%"/></linearGradient><linearGradient x1="0%" y1="100%" x2="100%" y2="0%" id="gradient-red"><stop stop-color="#BD0816" offset="0%"/><stop stop-color="#FF5252" offset="100%"/></linearGradient><linearGradient x1="0%" y1="100%" x2="100%" y2="0%" id="gradient-green"><stop stop-color="#1B660F" offset="0%"/><stop stop-color="#6CAE3E" offset="100%"/></linearGradient><linearGradient x1="0%" y1="100%" x2="100%" y2="0%" id="gradient-purple"><stop stop-color="#4D27A8" offset="0%"/><stop stop-color="#A166FF" offset="100%"/></linearGradient><linearGradient x1="0%" y1="100%" x2="100%" y2="0%" id="gradient-grey"><stop stop-color="#DCDCDC" offset="0%"/><stop stop-color="#F6F5F7" offset="100%"/></linearGradient><linearGradient x1="0%" y1="100%" x2="100%" y2="0%" id="gradient-light-pink"><stop stop-color="#DD344C" offset="0%"/><stop stop-color="#DD344C" offset="100%"/></linearGradient>,<linearGradient x1="0%" y1="100%" x2="100%" y2="0%" id="gradient-ag"><stop stop-color="#BC1356" offset="0%"/><stop stop-color="#F34482" offset="100%"/></linearGradient><linearGradient x1="0%" y1="100%" x2="100%" y2="0%" id="gradient-athena"><stop stop-color="#5930B5" offset="0%"/><stop stop-color="#945DF2" offset="100%"/></linearGradient><linearGradient x1="0%" y1="100%" x2="100%" y2="0%" id="gradient-emr"><stop stop-color="#5930B5" offset="0%"/><stop stop-color="#945DF2" offset="100%"/></linearGradient><linearGradient x1="0%" y1="100%" x2="100%" y2="0%" id="gradient-glue"><stop stop-color="#5930B5" offset="0%"/><stop stop-color="#945DF2" offset="100%"/></linearGradient><linearGradient x1="0%" y1="100%" x2="100%" y2="0%" id="gradient-sns"><stop stop-color="#BC1356" offset="0%"/><stop stop-color="#F34482" offset="100%"/></linearGradient><linearGradient x1="0%" y1="100%" x2="100%" y2="0%" id="gradient-states"><stop stop-color="#BC1356" offset="0%"/><stop stop-color="#F34482" offset="100%"/></linearGradient><linearGradient x1="0%" y1="100%" x2="100%" y2="0%" id="gradient-generic"><stop stop-color="#ccc" offset="0%"/><stop stop-color="#ddd" offset="100%"/></linearGradient><g stroke="none" stroke-width="1" fill="none" fill-rule="evenodd" id="icon-flow-pass"><g transform="translate(10.500000, 8.750000)" fill="#0073BB" fill-rule="nonzero"><path d="M13.8217363,31.2803301 L13.7368454,31.3532508 L13.7368454,31.3532508 L13.6534426,31.407053 L13.6534426,31.407053 L13.6052878,31.4313839 L13.6052878,31.4313839 L13.5081671,31.4681458 L13.5081671,31.4681458 L13.4513711,31.4828395 L13.4513711,31.4828395 L13.3846755,31.4942127 L13.3846755,31.4942127 L13.3412428,31.498357 L13.3412428,31.498357 L13.241495,31.498357 L13.241495,31.498357 L13.1802045,31.4917588 L13.1802045,31.4917588 L13.1314644,31.4828361 L13.1314644,31.4828361 L13.0652921,31.4652652 L12.9776235,31.4314294 L12.9776235,31.4314294 L12.9293782,31.4070608 L12.9293782,31.4070608 L12.8294824,31.3409596 L12.7610762,31.2803301 L12.7610762,31.2803301 L8.26107616,26.7803301 C7.96818295,26.4874369 7.96818295,26.0125631 8.26107616,25.7196699 C8.52734273,25.4534034 8.94400641,25.4291973 9.2376179,25.6470518 L9.32173634,25.7196699 L12.5814063,28.979 L12.581,19.7495522 L3.5,19.75 C1.6314366,19.75 0.104873551,18.2857224 0.00517886273,16.4420352 L0,16.25 L0,12.25 C0,10.3814366 1.4642776,8.85487355 3.3079648,8.75517886 L3.5,8.75 L11.686,8.74955216 L11.686,10.2495522 L3.5,10.25 C2.4456382,10.25 1.58183488,11.0658778 1.50548574,12.1007377 L1.5,12.25 L1.5,16.25 C1.5,17.3043618 2.31587779,18.1681651 3.35073766,18.2445143 L3.5,18.25 L22.5,18.25 C23.5543618,18.25 24.4181651,17.4341222 24.4945143,16.3992623 L24.5,16.25 L24.5,12.25 C24.5,11.1956382 23.6841222,10.3318349 22.6492623,10.2554857 L22.5,10.25 L15.686,10.2495522 L15.686,8.74955216 L22.5,8.75 C24.3685634,8.75 25.8951264,10.2142776 25.9948211,12.0579648 L26,12.25 L26,16.25 C26,18.1185634 24.5357224,19.6451264 22.6920352,19.7448211 L22.5,19.75 L14.081,19.7495522 L14.0814063,28.899 L17.2610762,25.7196699 L17.3451946,25.6470518 C17.6388061,25.4291973 18.0554698,25.4534034 18.3217363,25.7196699 C18.5880029,25.9859365 18.6122089,26.4026002 18.3943545,26.6962117 L18.3217363,26.7803301 L13.8217363,31.2803301 Z" fill="false"/><polygon points="14.0818291 0 14.0818291 14.5 12.5818291 14.5 12.5818291 0" fill="false"/></g></g><g stroke="none" stroke-width="1" fill="none" fill-rule="evenodd" id="icon-flow-parallel"><g transform="translate(7.794758, 8.750000)" fill="#0073BB" fill-rule="nonzero"><path d="M16.199562,30.9615157 L16.1088907,30.9567289 L16.0428411,30.9462621 L15.9289205,30.9134016 L15.8581395,30.8824655 L15.747534,30.8144639 L15.6634156,30.7418457 L12.1634156,27.2418457 C11.8705224,26.9489525 11.8705224,26.4740788 12.1634156,26.1811856 C12.4296821,25.914919 12.8463458,25.890713 13.1399573,26.1085674 L13.2240758,26.1811856 L15.455,28.412 L15.455,12.999 L4.95524179,12.999 L4.955,28.446 L7.21966991,26.1811856 L7.30378835,26.1085674 C7.59739984,25.890713 8.01406352,25.914919 8.28033009,26.1811856 C8.54659665,26.4474521 8.5708027,26.8641158 8.35294824,27.1577273 L8.28033009,27.2418457 L4.78033009,30.7418457 L4.69621165,30.8144639 L4.689,30.818 C4.66089447,30.8406686 4.6237969,30.8633711 4.58539483,30.8825712 L4.50825575,30.9158403 L4.44163507,30.9367462 L4.36774058,30.9522701 L4.27779844,30.9610057 L4.22212648,30.9610007 L4.09909543,30.9462621 L3.99176083,30.9158467 L3.9143938,30.8824655 L3.82554184,30.8300094 L3.80378835,30.8144639 L3.71966991,30.7418457 L0.219669914,27.2418457 C-0.0732233047,26.9489525 -0.0732233047,26.4740788 0.219669914,26.1811856 C0.485936477,25.914919 0.902600159,25.890713 1.19621165,26.1085674 L1.28033009,26.1811856 L3.455,28.356 L3.45524179,12.25 C3.45524179,11.8703042 3.73739568,11.556509 4.10347124,11.5068466 L4.20524179,11.5 L15.455,11.502 L15.4552418,-1.42108547e-13 L16.9552418,-1.42108547e-13 L16.955,11.495 L28.1555171,11.5 C28.5351143,11.5001394 28.8487603,11.7822674 28.8983985,12.1482549 L28.9052418,12.25 L28.905,28.44 L31.1641955,26.1811856 L31.2483139,26.1085674 C31.5419254,25.890713 31.9585891,25.914919 32.2248557,26.1811856 C32.4911222,26.4474521 32.5153283,26.8641158 32.2974738,27.1577273 L32.2248557,27.2418457 L28.7248557,30.7418457 C28.6845386,30.7821628 28.6407734,30.8169302 28.5945094,30.8461478 L28.5328469,30.8811 L28.4268027,30.9248089 L28.3112733,30.9524264 L28.1887092,30.9615157 L28.1087231,30.9566189 L28.0352714,30.9445058 L27.9277401,30.9126603 L27.8920604,30.8980433 L27.8568141,30.8814079 C27.8351606,30.8704626 27.8145136,30.8587698 27.7943421,30.8460217 C27.7482777,30.8169302 27.7045126,30.7821628 27.6641955,30.7418457 L24.1641955,27.2418457 C23.8713023,26.9489525 23.8713023,26.4740788 24.1641955,26.1811856 C24.4304621,25.914919 24.8471258,25.890713 25.1407372,26.1085674 L25.2248557,26.1811856 L27.405,28.362 L27.4052418,12.999 L16.955,12.992 L16.955,28.389 L19.1634156,26.1811856 L19.247534,26.1085674 C19.5411455,25.890713 19.9578092,25.914919 20.2240758,26.1811856 C20.4903423,26.4474521 20.5145484,26.8641158 20.2966939,27.1577273 L20.2240758,27.2418457 L16.7240758,30.7418457 L16.6399573,30.8144639 L16.636,30.816 L16.589136,30.8490255 L16.5330413,30.8806066 L16.4260228,30.9248089 L16.3532729,30.9444467 L16.2795333,30.9566255 L16.199562,30.9615157 Z" fill="false"/></g></g><g stroke="none" stroke-width="1" fill="none" fill-rule="evenodd" id="icon-flow-fail"><g transform="translate(11.250000, 12.250000)" fill="#D13212" fill-rule="nonzero"><path d="M12.75,0 C5.70836944,0 0,5.70836944 0,12.75 C0,19.7916306 5.70836944,25.5 12.75,25.5 C19.7916306,25.5 25.5,19.7916306 25.5,12.75 C25.5,5.70836944 19.7916306,0 12.75,0 Z M12.75,1.5 C18.9632034,1.5 24,6.53679656 24,12.75 C24,18.9632034 18.9632034,24 12.75,24 C6.53679656,24 1.5,18.9632034 1.5,12.75 C1.5,6.53679656 6.53679656,1.5 12.75,1.5 Z"/><path d="M16.5831403,8.21116377 C16.8767518,7.99330931 17.2934155,8.01751536 17.559682,8.28378193 C17.8259486,8.55004849 17.8501547,8.96671217 17.6323002,9.26032366 L17.559682,9.3444421 L13.622464,13.282112 L17.559682,17.2196699 C17.8525753,17.5125631 17.8525753,17.9874369 17.559682,18.2803301 C17.2934155,18.5465966 16.8767518,18.5708027 16.5831403,18.3529482 L16.4990219,18.2803301 L12.561464,14.343112 L8.62379406,18.2803301 L8.53967563,18.3529482 C8.24606413,18.5708027 7.82940045,18.5465966 7.56313389,18.2803301 C7.29686733,18.0140635 7.27266128,17.5973998 7.49051574,17.3037883 L7.56313389,17.2196699 L11.500464,13.282112 L7.56313389,9.3444421 C7.27024067,9.05154888 7.27024067,8.57667514 7.56313389,8.28378193 C7.82940045,8.01751536 8.24606413,7.99330931 8.53967563,8.21116377 L8.62379406,8.28378193 L12.561464,12.221112 L16.4990219,8.28378193 L16.5831403,8.21116377 Z"/></g></g><g stroke="none" stroke-width="1" fill="none" fill-rule="evenodd" id="icon-service-ecs"><polygon fill="url(#gradient-orange)" fill-rule="nonzero" points="0 0 48 0 48 48 0 48"/><g transform="translate(8.571429, 6.857143)" fill="#FFFFFF"><path d="M15.2963265,34.2830339 C15.1790326,34.2851901 15.0634353,34.254655 14.9625656,34.1947522 L0.629737609,25.9325948 C0.422812882,25.8131273 0.295523156,25.5921715 0.295975469,25.3532362 L0.295975469,8.6148105 C0.295523156,8.37587512 0.422812882,8.15491937 0.629737609,8.0354519 L13.8101458,0.440816327 C14.0100284,0.300973688 14.2726955,0.289151421 14.4843328,0.410472142 C14.69597,0.531792862 14.8185014,0.764429541 14.7988338,1.00758017 L14.7988338,8.25586006 C14.7978683,8.4845639 14.678786,8.69653025 14.483965,8.81632653 L7.89061224,12.5947522 L7.89061224,21.3732945 L15.3152187,25.6618076 L21.8078134,21.8833819 C22.0026549,21.7708901 22.2427095,21.7708901 22.437551,21.8833819 L28.6845481,25.4728863 C28.8914728,25.5923538 29.0185421,25.8133095 29.0185421,26.0522449 C29.0247939,26.2911184 28.8955182,26.5130822 28.6845481,26.6253061 L15.6174927,34.1821574 C15.5215627,34.2442623 15.4105411,34.2790926 15.2963265,34.2830339 Z M1.57434402,24.8998251 L15.6363848,33.0171429 L27.7084548,26.0396501 L22.6705539,23.1365598 L15.9764431,27.00348 C15.7633924,27.1232247 15.5030799,27.1232247 15.2900292,27.00348 L6.9271137,22.1793586 C6.72118643,22.0619697 6.59384862,21.8433331 6.59335277,21.6062974 L6.59335277,12.2546939 C6.58686793,12.0158204 6.71614359,11.7938565 6.9271137,11.6816327 L13.5204665,7.903207 L13.5204665,2.12221574 L1.5554519,9.04932945 L1.57434402,24.8998251 Z"/><path d="M29.8747522,24.5597668 C29.7579486,24.5582188 29.6433223,24.5279402 29.5409913,24.4716035 L23.3002915,20.863207 C23.0893214,20.7509831 22.9600458,20.5290192 22.9665306,20.2901458 L22.9665306,12.6640233 L16.3731778,8.86040816 C16.1672506,8.7430193 16.0399128,8.52438268 16.0394169,8.28734694 L16.0394169,1.03906706 C16.0341004,0.803800605 16.1604031,0.585199871 16.3668805,0.472303207 C16.561722,0.359811418 16.8017766,0.359811418 16.9966181,0.472303207 L30.2274052,8.07323615 C30.4333325,8.19062502 30.5606703,8.40926163 30.5611674,8.64629738 L30.5611674,23.8670554 C30.5616197,24.1059908 30.43433,24.3269465 30.2274052,24.446414 C30.1223235,24.5155102 30.0004135,24.5546956 29.8747522,24.5597668 L29.8747522,24.5597668 Z M24.244898,19.8682216 L29.2827988,22.7650146 L29.2827988,9.06822157 L17.3177843,2.14110787 L17.3177843,7.89061224 L23.9300292,11.7194169 C24.1409993,11.8316408 24.2702749,12.0536047 24.2637901,12.2924781 L24.244898,19.8682216 Z"/></g></g><g stroke="none" stroke-width="1" fill="none" fill-rule="evenodd" id="icon-service-sns"><polygon fill="url(#gradient-sns)" fill-rule="nonzero" points="0 0 48 0 48 48 0 48"/><g transform="translate(6.857143, 8.571429)" fill="#FFFFFF"><path d="M27.7901299,23.6384416 L27.7901299,24.1558442 C27.7901299,24.0935065 27.7901299,24.0311688 27.7901299,23.9688312 C27.7775636,23.8590598 27.7775636,23.748213 27.7901299,23.6384416 L27.7901299,23.6384416 Z"/><path d="M19.6051948,11.2207792 L19.5428571,11.3392208 C19.5678154,11.3007712 19.5867361,11.258725 19.598961,11.2145455 L19.6051948,11.2207792 Z"/><path d="M14.2005195,9.05757391 C13.6457143,9.05757391 8.74597403,9.01402597 8.74597403,10.8654545 C8.7438301,10.9827418 8.76501986,11.0992855 8.80831169,11.2083117 C8.82653378,11.2531204 8.84734819,11.2968307 8.87064935,11.3392208 L12.2618182,18.8197403 L12.2618182,22.6909091 C12.2618182,23.0836364 12.4238961,23.3142857 12.7667532,23.3142857 L12.9288312,23.3142857 C13.7125247,23.1091801 14.440768,22.7322822 15.0607792,22.2109091 L15.4784416,21.9179221 C15.6592098,21.8049511 15.7697195,21.6074445 15.7714286,21.3942857 L15.7714286,18.8384416 L19.5428571,11.3579221 L19.5428571,11.3579221 C19.5678154,11.3194725 19.5867361,11.2774263 19.598961,11.2332468 C19.6422529,11.1242205 19.6634426,11.0076769 19.6612987,10.8903896 C19.6612987,9.01402597 14.7615584,9.05757391 14.2005195,9.05757391 Z M14.2005195,10.2046753 C16.401039,10.2046753 17.8161039,10.5911688 18.2898701,10.8654545 C17.8161039,11.1397403 16.4197403,11.5262338 14.2005195,11.5262338 C11.9812987,11.5262338 10.5911688,11.1397403 10.1174026,10.8654545 C10.5974026,10.5974026 12,10.2046753 14.2005195,10.2046753 Z M14.6555844,18.3085714 C14.6555844,18.3958442 14.6555844,18.5516883 14.6555844,18.7137662 L14.6555844,21.1511688 L14.4124675,21.3007792 C14.0571429,21.5064935 13.7454545,21.6498701 13.3901299,21.8368831 L13.3901299,18.7012987 C13.3886333,18.6158595 13.3717396,18.5313906 13.3402597,18.4519481 L10.6846753,12.3802597 C11.8389408,12.6374106 13.0179565,12.7670187 14.2005195,12.7667532 C15.348723,12.7658697 16.4936743,12.6446888 17.6166234,12.4051948 L14.6555844,18.3085714 Z"/><path d="M25.5584416,26.2877922 C23.1182592,28.0539489 20.1800425,28.9991553 17.1677922,28.987013 C10.3854545,28.987013 4.60051948,24.5797403 3.24155844,18.0779221 C4.49932636,18.0180834 5.56391168,17.129231 5.84727273,15.9023377 L9.02649351,15.9023377 L9.02649351,14.7241558 L5.85974026,14.7241558 C5.6123242,13.4628894 4.53770095,12.5322348 3.25402597,12.4675325 C4.38212696,7.89245649 7.68622619,4.16375023 12.0923456,2.49340779 C16.498465,0.823065355 21.4440467,1.42435019 25.3215584,4.10181818 L26.0322078,3.11688312 C21.7378924,0.149676116 16.24326,-0.470649087 11.3954912,1.46444787 C6.54772241,3.39954482 2.99061722,7.63307653 1.92,12.7418182 C0.932896899,13.199098 0.301171353,14.1879667 0.301171353,15.2758442 C0.301171353,16.3637216 0.932896899,17.3525903 1.92,17.8098701 C3.41748481,25.0404909 9.78373505,30.2277095 17.1677922,30.2337964 C20.4315682,30.2402168 23.6134536,29.2123238 26.2566234,27.2976623 L25.5584416,26.2877922 Z M1.55844156,15.2727273 C1.55271604,14.4800639 2.14291159,13.8093871 2.92987013,13.7142732 L3.11688312,13.7142732 C3.74777503,13.7117621 4.31794978,14.08986 4.56113229,14.6720054 C4.8043148,15.2541508 4.67252426,15.9254842 4.22730765,16.3724888 C3.78209103,16.8194934 3.11129125,16.9539736 2.52817587,16.7131263 C1.94506049,16.472279 1.56468037,15.9036242 1.56467532,15.2727273 L1.55844156,15.2727273 Z"/><path d="M3.02961039,13.7142857 L2.9361039,13.7142857 L3.02961039,13.7142857 Z"/><path d="M31.1688312,18.0779221 C32.6428447,18.078856 33.8661509,16.9388268 33.9689704,15.4684034 C34.0717898,13.99798 33.0190455,12.6987979 31.5592463,12.4945848 C30.0994471,12.2903718 28.7306038,13.2507951 28.425974,14.692987 L25.1844156,14.692987 L25.1844156,6.98181818 L26.8675325,6.98181818 C27.0563221,8.42101044 28.3118379,9.47848632 29.7621759,9.4198723 C31.2125139,9.36125828 32.3786008,8.20591564 32.4506373,6.75618235 C32.5226737,5.30644905 31.4768647,4.04119855 30.0394816,3.83909528 C28.6020985,3.63699201 27.2479353,4.56479439 26.9174026,5.97818182 L24.6233766,5.94701299 C24.46336,5.91295115 24.296661,5.95657638 24.173843,6.06465628 C24.0510249,6.17273618 23.9865594,6.33253568 24,6.49558442 L24,14.6742857 L19.2062338,14.6742857 L19.2062338,15.8275325 L24,15.8275325 L24,23.9812987 C24,24.3255801 24.2790952,24.6046753 24.6233766,24.6046753 L26.5807792,24.6046753 C26.8643557,26.0184294 28.1735338,26.9869377 29.6083906,26.8444521 C31.0432474,26.7019665 32.1363845,25.4949011 32.1363845,24.052987 C32.1363845,22.6110729 31.0432474,21.4040075 29.6083906,21.2615219 C28.1735338,21.1190363 26.8643557,22.0875446 26.5807792,23.5012987 L25.2218182,23.5012987 L25.1906494,15.8212987 L28.425974,15.8212987 C28.689181,17.1289264 29.8349914,18.0716159 31.1688312,18.0779221 Z M31.1688312,13.7142857 C32.0295347,13.7142857 32.7272727,14.4120238 32.7272727,15.2727273 C32.7272727,16.1334308 32.0295347,16.8311688 31.1688312,16.8311688 C30.3081277,16.8311688 29.6103896,16.1334308 29.6103896,15.2727273 C29.6103896,14.4120238 30.3081277,13.7142857 31.1688312,13.7142857 Z M29.6103896,5.04311688 C30.2387555,5.04566069 30.8035988,5.42680178 31.0411357,6.00854606 C31.2786727,6.59029034 31.1420368,7.25785835 30.6950374,7.69949371 C30.2480381,8.14112907 29.5788693,8.26969613 29.0000349,8.02515366 C28.4212006,7.7806112 28.046906,7.21120799 28.0519481,6.58285714 C28.0519347,6.16901677 28.2171807,5.77230541 28.5109782,5.48084892 C28.8047757,5.18939244 29.2027964,5.02732533 29.6166234,5.03064935 L29.6103896,5.04311688 Z M29.2987013,22.4415439 C30.1351427,22.4379775 30.8252457,23.0953453 30.8622859,23.9309738 C30.8993261,24.7666023 30.2700924,25.4824511 29.4366146,25.5528913 C28.6031369,25.6233315 27.8626884,25.0232393 27.7589582,24.1932468 L27.7589582,24.1932468 C27.7589582,24.1309091 27.7589582,24.0685714 27.7589582,24.0062338 C27.7587404,23.8950352 27.7712901,23.7841792 27.7963636,23.6758442 L27.7963636,23.6758442 C27.9497157,22.9654386 28.5720416,22.4541501 29.2987013,22.4415439 L29.2987013,22.4415439 Z"/></g></g></defs></g><style data-styled="true" data-styled-version="5.3.11">.bWeRVe{cursor:pointer;}/*!sc*/
data-styled.g142[id="sc-ERObt"]{content:"bWeRVe,"}/*!sc*/
.hCEWiS{stroke:#555;background-color:#555;stroke-width:1px;}/*!sc*/
data-styled.g143[id="sc-dNsVcS"]{content:"hCEWiS,"}/*!sc*/
.hisqus{stroke-width:0;stroke:none;fill:#f2f3f3;}/*!sc*/
data-styled.g144[id="sc-fulCBj"]{content:"hisqus,"}/*!sc*/
.hkRJpl{font-size:10px;line-height:12.5;stroke:none;}/*!sc*/
data-styled.g145[id="sc-kMribo"]{content:"hkRJpl,"}/*!sc*/
.gDaANQ{fill:var(--color-text-form-secondary-1tn2nd,#687078);}/*!sc*/
data-styled.g171[id="sc-dQEtJz"]{content:"gDaANQ,"}/*!sc*/
.frydMn{font-weight:400;font-size:12px;line-height:16px;font-family:Amazon Ember,Arial,Roboto,Arial,sans-serif;text-shadow:none;fill:var(--color-text-button-primary-default-h1el7o,#16191f);}/*!sc*/
data-styled.g172[id="sc-imwsjW"]{content:"frydMn,"}/*!sc*/
.cECDmZ{fill:#fff9cc;stroke:var(--color-text-form-secondary-1tn2nd,#687078);stroke-width:0.6px;}/*!sc*/
data-styled.g173[id="sc-kCMKrZ"]{content:"cECDmZ,"}/*!sc*/
.duZZsL{fill:#fff9cc;stroke:var(--color-text-form-secondary-1tn2nd,#687078);stroke-width:0.6px;}/*!sc*/
data-styled.g174[id="sc-dJiZtA"]{content:"duZZsL,"}/*!sc*/
.dsPBxu{stroke:var(--color-border-control-default-9i6y53,#687078);stroke-width:1px;fill:var(--color-background-container-content-ezsud2,#ffffff);opacity:0.5;}/*!sc*/
.node &gt; .new-look-state-node.has-errors &gt; .bounding-box &gt; .sc-epALIP{stroke:var(--color-border-status-error-16nl5k,#d13212);fill:var(--color-background-status-error-rv0ggo,#fdf3f1);}/*!sc*/
.selected &gt; .node &gt; .new-look-state-node &gt; .bounding-box &gt; .sc-epALIP{stroke:var(--color-border-status-info-kd0gvz,#0073bb);fill:var(--color-background-status-info-xdc3uu,#f1faff);}/*!sc*/
.selected &gt; .node &gt; .new-look-state-node.has-errors &gt; .bounding-box &gt; .sc-epALIP{stroke:var(--color-border-status-error-16nl5k,#d13212);fill:#fde0da;}/*!sc*/
data-styled.g175[id="sc-epALIP"]{content:"dsPBxu,"}/*!sc*/
</style><style>
.new-look-state-node &gt; rect:first-of-type {
  stroke: #687078;
  stroke-width: 1px;
  fill: #FFFFFF;
}

.new-look-state-node .error-icon circle {
 stroke-linejoin: round;
}

.new-look-state-node .error-icon circle, .new-look-state-node .error-icon path {
 stroke: var(--color-border-status-error-16nl5k, #d13212);
 fill: none;
 stroke-width: 2px;
}

.new-look-state-node.has-errors &gt; rect:first-of-type {
 stroke: var(--color-border-status-error-16nl5k, #d13212);
 fill: var(--color-background-status-error-rv0ggo, #fdf3f1);
}

.new-look-state-node.has-errors &gt; .bounding-box &gt; .new-look-state-node-sub &gt; rect {
  stroke: var(--color-border-status-error-16nl5k, #d13212);
  fill: var(--color-background-status-error-rv0ggo, #fdf3f1);
}

.new-look-state-node .handle path {
  stroke: var(--color-border-dropdown-item-hover-k0fqkn, #879596);
  stroke-width: 1px;
  fill: none;
}

.new-look-state-node {
  font-weight: 400;
  font-family: Amazon Ember, Arial, Roboto, Arial, sans-serif;
  text-shadow: none;
}

.new-look-state-node .line1 {
  fill: #687078;
  font-size: 12px;
}

.new-look-state-node .line2 {
  fill: #16191f;
}

.selected.node &gt; .new-look-state-node &gt; rect,
.selected.node &gt; .new-look-state-node &gt; .new-look-state-node &gt; rect,
.selected.node &gt; .new-look-state-node &gt; .bounding-box &gt; rect,
.selected.node &gt; .new-look-state-node.has-errors &gt; rect,
.selected.node &gt; .new-look-state-node.has-errors &gt; .bounding-box &gt; rect,
.selected.node &gt; .new-look-state-node.has-errors &gt; .new-look-state-node &gt; rect,
.selected.node &gt; .new-look-state-node &gt; .bounding-box &gt; .new-look-state-node-sub &gt; rect
 {
  stroke: var(--color-border-status-info-kd0gvz, #0073bb);
  fill: var(--color-background-status-info-xdc3uu, #f1faff);
  stroke-width: 1px;
}

.new-look-state-node-sub .item-source.not-specified {
  height: 15px;
  color: #687078;
  font-family: "Amazon Ember";
  font-size: 12px;
  letter-spacing: 0;
  line-height: 16px;
  font-weight: 400;
}
.new-look-state-node-sub .item-source .item-source_name{
  font-weight: 600;
}
.new-look-state-node-sub .item-source.not-specified .item-source_name{
  font-weight: 400;
}

.new-look-state-node-sub .item-source.not-specified {
  font-style: italic;
}

.new-look-state-node-sub &gt; rect,
.new-look-state-node &gt; .bounding-box &gt; rect {
  stroke: var(--color-border-control-default-9i6y53, #687078);
  fill: #ffffff;
}

.new-look-graph .drag-source {
  opacity: 0.2;
}

.new-look-graph .edge, .new-look-graph path.starting-connection {
  stroke-width: 1px;
  stroke: var(--color-text-form-secondary-1tn2nd, #687078);
  marker-end: url(#large-arrowhead);
}

.new-look-graph .edge-label {
  cursor: pointer;
}

.new-look-graph .edge-label rect {
  stroke-width: 1px;
  stroke: var(--color-border-control-default-9i6y53, #687078);
  fill: #fafafa;
}

.new-look-graph .edge-label.selected rect {
  stroke: var(--color-border-status-info-kd0gvz, #0073bb);
  fill: var(--color-background-status-info-xdc3uu, #f1faff);
  stroke-width: 0.6px;
}



.new-look-graph .edge-label .label {
  fill: var(--color-text-form-secondary-1tn2nd, #687078);
  font-family: Amazon Ember, Arial, Roboto, Arial, sans-serif;
}

/* centering the shape text */
@-moz-document url-prefix() {
  .new-look-graph .shape + text,
  .new-look-graph .edge-label text {
    transform: translateY(3.5px);
  }
}

.new-look-graph .edge path {
  marker-end: url(#large-arrowhead) !important;
}

.new-look-graph .edge.selected path{
  stroke: var(--color-border-status-info-kd0gvz, #0073bb);
  stroke-width: 1.1px;
}

.new-look-graph .edge.dragging-over path, .new-look-graph  g.dragging-over .starting-connection {
  stroke: #5C86FF;
  stroke-width: 2px;
}

.new-look-graph .edge.dragging-over path, .new-look-graph .dragging-over path.starting-connection {
  marker-end: url(#large-highlighted-arrowhead) !important;
}

.new-look-graph .edge.dragging-over .edge-label text {
  fill: #5C86FF;
}

#large-highlighted-arrowhead {
  fill: #5C86FF;
}

#large-highlighted-arrowhead path {
  stroke: none;
}

.new-look-graph .edge.drop-not-supported path, g.drop-not-supported .starting-connection {
  stroke: red;
}

.new-look-graph .edge.drop-not-supported .edge-label text {
  fill: red;
}

.new-look-graph .edge.drop-not-supported path {
  marker-end: url(#large-error-arrowhead) !important;
}

#large-error-arrowhead {
  fill: red;
}

.node-container * &gt; .icon  {
  &gt; rect {
    fill: #fafafa;
  }
  &gt; line {
    stroke: #d5dbdb;
  }
}


.node.Placeholder.dragging-over rect {
  stroke: var(--color-border-status-info-kd0gvz, #0073bb);
  fill: var(--color-background-status-info-xdc3uu, #f1faff);
  stroke-width: 2px;
}

.node.Placeholder.dragging-over .label {
  fill: var(--color-text-status-info-jqvvrd, #0073bb);
}

g.Placeholder rect {
  stroke-dasharray: 5 4;
  stroke: var(--color-border-dropdown-item-hover-k0fqkn, #879596);
  fill: #ffffff;
  stroke-width: 1px;
}

g.Placeholder .label {
  font-style: italic;
  fill: var(--color-text-input-placeholder-084e6q, #687078);
}

.node.Placeholder.drop-not-supported rect {
  stroke: red;
}

.node.Placeholder.drop-not-supported .label {
  fill: red;
}
</style><style>.line2 { font-size: 14px }</style></svg>